<svg xmlns="http://www.w3.org/2000/svg" viewBox="0 0 800 600" style="background: transparent;">
  <defs>
    <filter id="glow">
      <feGaussianBlur stdDeviation="4" result="coloredBlur"/>
      <feMerge>
        <feMergeNode in="coloredBlur"/>
        <feMergeNode in="SourceGraphic"/>
      </feMerge>
    </filter>
    <filter id="glow-strong">
      <feGaussianBlur stdDeviation="8" result="coloredBlur"/>
      <feMerge>
        <feMergeNode in="coloredBlur"/>
        <feMergeNode in="coloredBlur"/>
        <feMergeNode in="SourceGraphic"/>
      </feMerge>
    </filter>
  </defs>
  <path d="M 396.93,271.09 L 470.28,280.14 L 474.15,281.31 L 477.07,284.07 L 479.08,287.88 L 479.45,291.66 L 478.37,295.63 L 466.62,341.06 L 464.61,346.02 L 461.85,349.67 L 457.27,353.17 L 453.42,354.91 L 432.63,360.80 L 425.72,363.99 L 420.58,367.18 L 415.93,371.18 L 412.43,374.93 L 409.82,378.06 L 406.66,384.94 L 405.52,390.17 L 405.42,395.88 L 406.69,402.63 L 409.05,409.73 L 414.22,427.79 L 416.05,441.18 L 416.24,450.69 L 415.31,458.94 L 409.58,501.33 L 405.76,528.04 L 405.02,531.14 L 404.31,533.65 L 402.11,536.22 L 398.36,539.04 L 396.10,539.75 L 393.49,540.00 L 391.01,539.63 L 388.35,538.67 L 386.37,536.84 L 385.16,535.13 L 383.64,532.28 L 379.08,519.95 L 374.74,502.10 L 338.06,402.54 L 323.74,363.99 L 315.81,342.48 L 309.86,325.81 L 303.66,305.11 L 290.55,267.00 L 278.06,232.66 L 276.61,229.32 L 276.23,226.81 L 276.61,225.35 L 278.00,223.89 L 281.16,223.80 L 292.84,225.07 L 295.42,225.07 L 297.49,222.81 L 304.12,199.88 L 305.49,195.57 L 309.67,186.06 L 313.48,179.24 L 321.69,168.36 L 331.05,158.45 L 342.83,149.24 L 392.75,113.39 L 404.12,104.99 L 413.08,99.17 L 425.04,92.13 L 435.30,86.74 L 451.87,79.46 L 467.03,73.26 L 489.55,63.56 L 499.19,60.03 L 504.61,60.00 L 510.35,61.05 L 515.58,63.81 L 518.37,66.26 L 520.23,68.68 L 522.09,72.24 L 523.15,75.71 L 523.77,78.93 L 523.27,84.26 L 522.09,88.14 L 520.42,91.89 L 517.97,95.23 L 514.50,98.27 L 510.19,100.90 L 505.64,102.73 L 499.01,103.60 L 446.45,107.44 L 439.97,108.22 L 437.19,108.77 L 434.24,109.74 L 406.01,125.79 L 403.16,127.74 L 401.24,129.97 L 399.19,134.74 L 392.62,162.72 L 393.06,164.92 L 394.58,166.41 L 396.87,167.00 L 420.30,170.19 L 423.05,171.25 L 424.82,172.08 L 426.68,173.82 L 428.54,177.01 L 428.97,180.95 L 429.04,200.31 L 427.33,203.63 L 425.22,205.61 L 422.03,206.73 L 417.66,207.59 L 413.85,208.06 L 408.77,208.21 L 403.75,207.87 L 354.85,201.03 L 350.64,200.75 L 345.28,200.93 L 340.04,201.77 L 336.44,202.85 L 334.06,204.84 L 331.58,207.25 L 318.16,229.44 L 311.22,239.64 L 309.76,242.64 L 308.74,246.64 L 308.40,250.05 L 308.34,254.14 L 309.08,256.93 L 310.88,258.94 L 313.11,259.96 L 318.22,260.80 L 396.93,271.09" 
        fill="none" 
        stroke="#1a3a52" 
        stroke-width="16" 
        stroke-linecap="round" 
        stroke-linejoin="round"/>
  <path d="M 396.93,271.09 L 470.28,280.14 L 474.15,281.31 L 477.07,284.07 L 479.08,287.88 L 479.45,291.66 L 478.37,295.63 L 466.62,341.06 L 464.61,346.02 L 461.85,349.67 L 457.27,353.17 L 453.42,354.91 L 432.63,360.80 L 425.72,363.99 L 420.58,367.18 L 415.93,371.18 L 412.43,374.93 L 409.82,378.06 L 406.66,384.94 L 405.52,390.17 L 405.42,395.88 L 406.69,402.63 L 409.05,409.73 L 414.22,427.79 L 416.05,441.18 L 416.24,450.69 L 415.31,458.94 L 409.58,501.33 L 405.76,528.04 L 405.02,531.14 L 404.31,533.65 L 402.11,536.22 L 398.36,539.04 L 396.10,539.75 L 393.49,540.00 L 391.01,539.63 L 388.35,538.67 L 386.37,536.84 L 385.16,535.13 L 383.64,532.28 L 379.08,519.95 L 374.74,502.10 L 338.06,402.54 L 323.74,363.99 L 315.81,342.48 L 309.86,325.81 L 303.66,305.11 L 290.55,267.00 L 278.06,232.66 L 276.61,229.32 L 276.23,226.81 L 276.61,225.35 L 278.00,223.89 L 281.16,223.80 L 292.84,225.07 L 295.42,225.07 L 297.49,222.81 L 304.12,199.88 L 305.49,195.57 L 309.67,186.06 L 313.48,179.24 L 321.69,168.36 L 331.05,158.45 L 342.83,149.24 L 392.75,113.39 L 404.12,104.99 L 413.08,99.17 L 425.04,92.13 L 435.30,86.74 L 451.87,79.46 L 467.03,73.26 L 489.55,63.56 L 499.19,60.03 L 504.61,60.00 L 510.35,61.05 L 515.58,63.81 L 518.37,66.26 L 520.23,68.68 L 522.09,72.24 L 523.15,75.71 L 523.77,78.93 L 523.27,84.26 L 522.09,88.14 L 520.42,91.89 L 517.97,95.23 L 514.50,98.27 L 510.19,100.90 L 505.64,102.73 L 499.01,103.60 L 446.45,107.44 L 439.97,108.22 L 437.19,108.77 L 434.24,109.74 L 406.01,125.79 L 403.16,127.74 L 401.24,129.97 L 399.19,134.74 L 392.62,162.72 L 393.06,164.92 L 394.58,166.41 L 396.87,167.00 L 420.30,170.19 L 423.05,171.25 L 424.82,172.08 L 426.68,173.82 L 428.54,177.01 L 428.97,180.95 L 429.04,200.31 L 427.33,203.63 L 425.22,205.61 L 422.03,206.73 L 417.66,207.59 L 413.85,208.06 L 408.77,208.21 L 403.75,207.87 L 354.85,201.03 L 350.64,200.75 L 345.28,200.93 L 340.04,201.77 L 336.44,202.85 L 334.06,204.84 L 331.58,207.25 L 318.16,229.44 L 311.22,239.64 L 309.76,242.64 L 308.74,246.64 L 308.40,250.05 L 308.34,254.14 L 309.08,256.93 L 310.88,258.94 L 313.11,259.96 L 318.22,260.80 L 396.93,271.09" 
        fill="none" 
        stroke="#00bfff" 
        stroke-width="8" 
        stroke-linecap="round" 
        stroke-linejoin="round"
        filter="url(#glow-strong)"
        opacity="0.9"/>
</svg>