<svg xmlns="http://www.w3.org/2000/svg" viewBox="0 0 800 600" style="background: transparent;">
  <defs>
    <filter id="glow">
      <feGaussianBlur stdDeviation="4" result="coloredBlur"/>
      <feMerge>
        <feMergeNode in="coloredBlur"/>
        <feMergeNode in="SourceGraphic"/>
      </feMerge>
    </filter>
    <filter id="glow-strong">
      <feGaussianBlur stdDeviation="8" result="coloredBlur"/>
      <feMerge>
        <feMergeNode in="coloredBlur"/>
        <feMergeNode in="coloredBlur"/>
        <feMergeNode in="SourceGraphic"/>
      </feMerge>
    </filter>
  </defs>
  <path d="M 506.56,191.41 L 462.48,183.46 L 353.27,163.27 L 345.74,162.88 L 340.73,165.97 L 332.27,177.09 L 305.52,201.64 L 276.49,229.67 L 253.68,254.41 L 232.87,278.81 L 198.82,329.22 L 189.44,342.66 L 175.04,358.48 L 152.88,376.90 L 116.09,401.99 L 82.05,425.11 L 80.00,428.20 L 80.23,431.48 L 84.13,433.10 L 93.05,434.18 L 120.92,436.38 L 148.79,437.12 L 177.59,436.93 L 205.00,435.11 L 236.77,431.64 L 333.85,418.90 L 378.17,414.92 L 473.91,412.18 L 481.70,410.37 L 486.49,406.74 L 488.30,402.72 L 487.84,398.51 L 485.33,394.54 L 475.76,385.24 L 468.19,379.06 L 454.26,370.68 L 438.97,365.05 L 420.44,360.88 L 400.33,358.68 L 379.33,359.60 L 297.76,368.52 L 286.80,367.59 L 277.88,365.43 L 270.12,361.76 L 263.25,356.86 L 258.93,351.03 L 256.61,344.66 L 256.18,338.83 L 257.54,332.47 L 260.04,327.76 L 299.57,280.81 L 306.21,275.87 L 316.71,271.36 L 328.84,269.50 L 340.49,270.24 L 352.81,273.71 L 360.37,277.88 L 368.13,284.44 L 375.43,290.81 L 383.23,296.26 L 392.57,300.62 L 403.53,305.02 L 418.86,308.84 L 434.84,311.19 L 561.42,313.01 L 658.78,314.63 L 669.04,314.48 L 679.08,312.08 L 687.34,307.91 L 693.94,302.28 L 698.96,294.83 L 718.84,249.31 L 720.00,245.15 L 718.84,242.06 L 716.56,239.66 L 708.81,235.49 L 698.54,231.33 L 685.26,226.77 L 670.20,222.41 L 652.37,218.39 L 506.56,191.41" 
        fill="none" 
        stroke="#1a3a52" 
        stroke-width="16" 
        stroke-linecap="round" 
        stroke-linejoin="round"/>
  <path d="M 506.56,191.41 L 462.48,183.46 L 353.27,163.27 L 345.74,162.88 L 340.73,165.97 L 332.27,177.09 L 305.52,201.64 L 276.49,229.67 L 253.68,254.41 L 232.87,278.81 L 198.82,329.22 L 189.44,342.66 L 175.04,358.48 L 152.88,376.90 L 116.09,401.99 L 82.05,425.11 L 80.00,428.20 L 80.23,431.48 L 84.13,433.10 L 93.05,434.18 L 120.92,436.38 L 148.79,437.12 L 177.59,436.93 L 205.00,435.11 L 236.77,431.64 L 333.85,418.90 L 378.17,414.92 L 473.91,412.18 L 481.70,410.37 L 486.49,406.74 L 488.30,402.72 L 487.84,398.51 L 485.33,394.54 L 475.76,385.24 L 468.19,379.06 L 454.26,370.68 L 438.97,365.05 L 420.44,360.88 L 400.33,358.68 L 379.33,359.60 L 297.76,368.52 L 286.80,367.59 L 277.88,365.43 L 270.12,361.76 L 263.25,356.86 L 258.93,351.03 L 256.61,344.66 L 256.18,338.83 L 257.54,332.47 L 260.04,327.76 L 299.57,280.81 L 306.21,275.87 L 316.71,271.36 L 328.84,269.50 L 340.49,270.24 L 352.81,273.71 L 360.37,277.88 L 368.13,284.44 L 375.43,290.81 L 383.23,296.26 L 392.57,300.62 L 403.53,305.02 L 418.86,308.84 L 434.84,311.19 L 561.42,313.01 L 658.78,314.63 L 669.04,314.48 L 679.08,312.08 L 687.34,307.91 L 693.94,302.28 L 698.96,294.83 L 718.84,249.31 L 720.00,245.15 L 718.84,242.06 L 716.56,239.66 L 708.81,235.49 L 698.54,231.33 L 685.26,226.77 L 670.20,222.41 L 652.37,218.39 L 506.56,191.41" 
        fill="none" 
        stroke="#00bfff" 
        stroke-width="8" 
        stroke-linecap="round" 
        stroke-linejoin="round"
        filter="url(#glow-strong)"
        opacity="0.9"/>
</svg>