<svg xmlns="http://www.w3.org/2000/svg" viewBox="0 0 800 600" style="background: transparent;">
  <defs>
    <filter id="glow">
      <feGaussianBlur stdDeviation="4" result="coloredBlur"/>
      <feMerge>
        <feMergeNode in="coloredBlur"/>
        <feMergeNode in="SourceGraphic"/>
      </feMerge>
    </filter>
    <filter id="glow-strong">
      <feGaussianBlur stdDeviation="8" result="coloredBlur"/>
      <feMerge>
        <feMergeNode in="coloredBlur"/>
        <feMergeNode in="coloredBlur"/>
        <feMergeNode in="SourceGraphic"/>
      </feMerge>
    </filter>
  </defs>
  <path d="M 348.14,185.69 L 317.48,209.60 L 272.08,246.17 L 269.46,248.28 L 268.34,251.17 L 268.52,252.44 L 269.27,253.62 L 270.81,256.57 L 273.37,260.16 L 274.97,264.74 L 275.88,270.38 L 276.06,274.51 L 274.46,282.56 L 272.47,286.66 L 269.36,290.94 L 265.72,294.38 L 257.64,300.74 L 248.05,307.67 L 234.54,317.98 L 218.08,331.85 L 211.48,337.43 L 193.93,354.83 L 185.22,364.02 L 176.21,375.21 L 158.87,399.17 L 154.59,405.90 L 152.00,410.93 L 152.33,413.74 L 153.80,415.73 L 157.45,417.17 L 169.69,418.86 L 192.85,422.60 L 195.53,423.44 L 197.22,424.32 L 198.36,425.59 L 200.05,429.53 L 200.38,433.70 L 198.82,469.39 L 198.27,482.48 L 198.67,483.59 L 203.58,488.11 L 208.07,490.80 L 242.50,510.42 L 250.13,513.89 L 285.68,525.35 L 299.09,529.18 L 311.24,534.97 L 320.47,539.40 L 324.60,539.97 L 327.88,540.00 L 330.93,538.58 L 334.94,534.84 L 339.79,531.47 L 346.43,527.76 L 354.87,525.26 L 365.81,524.20 L 375.70,523.84 L 384.08,522.85 L 393.43,520.28 L 401.69,517.18 L 410.79,511.84 L 416.94,507.50 L 423.06,501.20 L 428.79,493.36 L 432.02,485.37 L 434.04,479.19 L 435.06,474.00 L 443.38,438.10 L 443.44,433.60 L 442.54,428.21 L 440.31,422.69 L 437.69,417.99 L 433.01,412.74 L 428.70,408.58 L 423.97,403.52 L 421.59,399.84 L 419.51,395.68 L 417.94,390.94 L 408.50,351.42 L 407.78,346.60 L 407.39,340.87 L 407.39,335.62 L 407.96,326.09 L 409.35,318.71 L 411.91,310.24 L 415.07,302.04 L 419.17,294.98 L 423.46,288.44 L 430.57,279.63 L 435.33,274.09 L 444.86,266.10 L 476.37,243.97 L 481.34,240.92 L 486.01,238.90 L 489.45,237.61 L 496.11,236.01 L 502.51,235.59 L 510.28,235.83 L 517.31,235.86 L 524.12,236.07 L 529.91,235.92 L 534.86,234.95 L 539.80,233.05 L 543.18,231.55 L 549.18,227.33 L 584.00,203.90 L 596.96,195.34 L 603.29,189.34 L 608.00,185.03 L 613.12,178.61 L 618.31,169.08 L 623.49,157.14 L 637.24,119.57 L 645.47,95.70 L 647.04,89.06 L 647.91,85.72 L 648.00,83.67 L 645.83,82.76 L 639.38,80.80 L 608.39,70.91 L 576.46,60.87 L 573.99,60.33 L 570.01,60.00 L 565.16,60.27 L 560.15,61.90 L 555.09,64.58 L 552.10,66.75 L 549.24,70.28 L 530.30,97.87 L 518.85,112.52 L 517.31,114.48 L 515.71,115.62 L 514.11,116.11 L 511.37,116.20 L 509.44,115.32 L 488.88,96.93 L 486.01,94.67 L 482.94,93.25 L 479.08,92.05 L 475.64,91.42 L 472.57,91.45 L 468.89,92.02 L 463.79,93.44 L 460.03,95.55 L 458.55,96.69 L 348.14,185.69" 
        fill="none" 
        stroke="#1a3a52" 
        stroke-width="16" 
        stroke-linecap="round" 
        stroke-linejoin="round"/>
  <path d="M 348.14,185.69 L 317.48,209.60 L 272.08,246.17 L 269.46,248.28 L 268.34,251.17 L 268.52,252.44 L 269.27,253.62 L 270.81,256.57 L 273.37,260.16 L 274.97,264.74 L 275.88,270.38 L 276.06,274.51 L 274.46,282.56 L 272.47,286.66 L 269.36,290.94 L 265.72,294.38 L 257.64,300.74 L 248.05,307.67 L 234.54,317.98 L 218.08,331.85 L 211.48,337.43 L 193.93,354.83 L 185.22,364.02 L 176.21,375.21 L 158.87,399.17 L 154.59,405.90 L 152.00,410.93 L 152.33,413.74 L 153.80,415.73 L 157.45,417.17 L 169.69,418.86 L 192.85,422.60 L 195.53,423.44 L 197.22,424.32 L 198.36,425.59 L 200.05,429.53 L 200.38,433.70 L 198.82,469.39 L 198.27,482.48 L 198.67,483.59 L 203.58,488.11 L 208.07,490.80 L 242.50,510.42 L 250.13,513.89 L 285.68,525.35 L 299.09,529.18 L 311.24,534.97 L 320.47,539.40 L 324.60,539.97 L 327.88,540.00 L 330.93,538.58 L 334.94,534.84 L 339.79,531.47 L 346.43,527.76 L 354.87,525.26 L 365.81,524.20 L 375.70,523.84 L 384.08,522.85 L 393.43,520.28 L 401.69,517.18 L 410.79,511.84 L 416.94,507.50 L 423.06,501.20 L 428.79,493.36 L 432.02,485.37 L 434.04,479.19 L 435.06,474.00 L 443.38,438.10 L 443.44,433.60 L 442.54,428.21 L 440.31,422.69 L 437.69,417.99 L 433.01,412.74 L 428.70,408.58 L 423.97,403.52 L 421.59,399.84 L 419.51,395.68 L 417.94,390.94 L 408.50,351.42 L 407.78,346.60 L 407.39,340.87 L 407.39,335.62 L 407.96,326.09 L 409.35,318.71 L 411.91,310.24 L 415.07,302.04 L 419.17,294.98 L 423.46,288.44 L 430.57,279.63 L 435.33,274.09 L 444.86,266.10 L 476.37,243.97 L 481.34,240.92 L 486.01,238.90 L 489.45,237.61 L 496.11,236.01 L 502.51,235.59 L 510.28,235.83 L 517.31,235.86 L 524.12,236.07 L 529.91,235.92 L 534.86,234.95 L 539.80,233.05 L 543.18,231.55 L 549.18,227.33 L 584.00,203.90 L 596.96,195.34 L 603.29,189.34 L 608.00,185.03 L 613.12,178.61 L 618.31,169.08 L 623.49,157.14 L 637.24,119.57 L 645.47,95.70 L 647.04,89.06 L 647.91,85.72 L 648.00,83.67 L 645.83,82.76 L 639.38,80.80 L 608.39,70.91 L 576.46,60.87 L 573.99,60.33 L 570.01,60.00 L 565.16,60.27 L 560.15,61.90 L 555.09,64.58 L 552.10,66.75 L 549.24,70.28 L 530.30,97.87 L 518.85,112.52 L 517.31,114.48 L 515.71,115.62 L 514.11,116.11 L 511.37,116.20 L 509.44,115.32 L 488.88,96.93 L 486.01,94.67 L 482.94,93.25 L 479.08,92.05 L 475.64,91.42 L 472.57,91.45 L 468.89,92.02 L 463.79,93.44 L 460.03,95.55 L 458.55,96.69 L 348.14,185.69" 
        fill="none" 
        stroke="#00bfff" 
        stroke-width="8" 
        stroke-linecap="round" 
        stroke-linejoin="round"
        filter="url(#glow-strong)"
        opacity="0.9"/>
</svg>