<svg xmlns="http://www.w3.org/2000/svg" viewBox="0 0 800 600" style="background: transparent;">
  <defs>
    <filter id="glow">
      <feGaussianBlur stdDeviation="4" result="coloredBlur"/>
      <feMerge>
        <feMergeNode in="coloredBlur"/>
        <feMergeNode in="SourceGraphic"/>
      </feMerge>
    </filter>
    <filter id="glow-strong">
      <feGaussianBlur stdDeviation="8" result="coloredBlur"/>
      <feMerge>
        <feMergeNode in="coloredBlur"/>
        <feMergeNode in="coloredBlur"/>
        <feMergeNode in="SourceGraphic"/>
      </feMerge>
    </filter>
  </defs>
  <path d="M 668.77,386.90 L 715.62,402.20 L 718.10,403.71 L 719.68,405.92 L 720.00,408.06 L 719.21,411.15 L 709.69,429.93 L 693.59,453.70 L 680.33,476.70 L 678.14,477.81 L 675.34,478.17 L 630.52,464.51 L 575.71,448.34 L 500.92,422.73 L 436.46,400.23 L 432.23,396.85 L 432.23,392.26 L 453.31,350.61 L 453.47,347.36 L 450.20,344.51 L 413.51,331.32 L 392.75,322.62 L 364.78,308.96 L 363.07,307.21 L 363.70,304.71 L 368.37,296.90 L 368.21,294.66 L 365.87,292.92 L 355.26,285.82 L 291.56,248.26 L 280.79,240.82 L 276.26,238.45 L 271.72,238.58 L 267.97,241.69 L 251.12,279.49 L 249.09,281.10 L 245.97,281.60 L 241.91,281.60 L 235.82,284.45 L 232.07,285.19 L 228.17,285.08 L 224.42,284.82 L 220.36,286.06 L 218.33,288.43 L 214.74,297.38 L 213.03,299.01 L 210.52,300.25 L 206.78,300.38 L 179.92,293.29 L 137.14,277.35 L 108.88,264.43 L 103.27,260.95 L 98.89,256.49 L 94.82,250.13 L 80.95,214.20 L 80.00,209.35 L 84.54,159.73 L 85.94,156.62 L 89.36,153.53 L 147.29,130.40 L 163.54,124.91 L 172.43,122.43 L 177.42,121.83 L 183.19,122.56 L 187.26,124.67 L 189.92,126.92 L 207.41,151.53 L 211.47,157.25 L 216.14,161.84 L 265.94,196.42 L 270.01,200.78 L 272.04,205.00 L 276.42,227.76 L 278.29,232.22 L 282.03,236.47 L 286.41,239.45 L 358.08,281.84 L 367.77,286.69 L 378.69,291.18 L 388.84,294.90 L 421.16,305.21 L 449.88,315.42 L 519.97,338.29 L 548.41,348.13 L 621.16,371.74 L 668.77,386.90" 
        fill="none" 
        stroke="#1a3a52" 
        stroke-width="16" 
        stroke-linecap="round" 
        stroke-linejoin="round"/>
  <path d="M 668.77,386.90 L 715.62,402.20 L 718.10,403.71 L 719.68,405.92 L 720.00,408.06 L 719.21,411.15 L 709.69,429.93 L 693.59,453.70 L 680.33,476.70 L 678.14,477.81 L 675.34,478.17 L 630.52,464.51 L 575.71,448.34 L 500.92,422.73 L 436.46,400.23 L 432.23,396.85 L 432.23,392.26 L 453.31,350.61 L 453.47,347.36 L 450.20,344.51 L 413.51,331.32 L 392.75,322.62 L 364.78,308.96 L 363.07,307.21 L 363.70,304.71 L 368.37,296.90 L 368.21,294.66 L 365.87,292.92 L 355.26,285.82 L 291.56,248.26 L 280.79,240.82 L 276.26,238.45 L 271.72,238.58 L 267.97,241.69 L 251.12,279.49 L 249.09,281.10 L 245.97,281.60 L 241.91,281.60 L 235.82,284.45 L 232.07,285.19 L 228.17,285.08 L 224.42,284.82 L 220.36,286.06 L 218.33,288.43 L 214.74,297.38 L 213.03,299.01 L 210.52,300.25 L 206.78,300.38 L 179.92,293.29 L 137.14,277.35 L 108.88,264.43 L 103.27,260.95 L 98.89,256.49 L 94.82,250.13 L 80.95,214.20 L 80.00,209.35 L 84.54,159.73 L 85.94,156.62 L 89.36,153.53 L 147.29,130.40 L 163.54,124.91 L 172.43,122.43 L 177.42,121.83 L 183.19,122.56 L 187.26,124.67 L 189.92,126.92 L 207.41,151.53 L 211.47,157.25 L 216.14,161.84 L 265.94,196.42 L 270.01,200.78 L 272.04,205.00 L 276.42,227.76 L 278.29,232.22 L 282.03,236.47 L 286.41,239.45 L 358.08,281.84 L 367.77,286.69 L 378.69,291.18 L 388.84,294.90 L 421.16,305.21 L 449.88,315.42 L 519.97,338.29 L 548.41,348.13 L 621.16,371.74 L 668.77,386.90" 
        fill="none" 
        stroke="#00bfff" 
        stroke-width="8" 
        stroke-linecap="round" 
        stroke-linejoin="round"
        filter="url(#glow-strong)"
        opacity="0.9"/>
</svg>