<svg xmlns="http://www.w3.org/2000/svg" viewBox="0 0 800 600" style="background: transparent;">
  <defs>
    <filter id="glow">
      <feGaussianBlur stdDeviation="4" result="coloredBlur"/>
      <feMerge>
        <feMergeNode in="coloredBlur"/>
        <feMergeNode in="SourceGraphic"/>
      </feMerge>
    </filter>
    <filter id="glow-strong">
      <feGaussianBlur stdDeviation="8" result="coloredBlur"/>
      <feMerge>
        <feMergeNode in="coloredBlur"/>
        <feMergeNode in="coloredBlur"/>
        <feMergeNode in="SourceGraphic"/>
      </feMerge>
    </filter>
  </defs>
  <path d="M 231.38,312.47 L 235.56,447.19 L 239.52,535.42 L 241.39,539.38 L 245.30,540.00 L 249.52,538.98 L 252.68,536.89 L 272.94,518.44 L 278.46,516.58 L 284.50,516.98 L 319.75,527.24 L 328.19,528.09 L 335.84,527.64 L 567.06,487.42 L 574.97,485.33 L 579.19,481.37 L 580.22,476.31 L 579.42,471.50 L 576.79,466.08 L 571.82,460.61 L 566.04,456.21 L 558.13,450.75 L 530.26,432.12 L 507.85,411.19 L 502.34,406.34 L 497.90,399.45 L 487.90,379.10 L 484.47,374.70 L 479.19,371.58 L 473.94,369.05 L 465.54,368.21 L 440.25,371.98 L 433.40,371.76 L 426.34,370.52 L 420.51,367.81 L 413.45,361.94 L 362.11,303.49 L 357.13,299.49 L 350.02,298.47 L 345.57,301.58 L 343.97,307.89 L 344.24,317.49 L 356.60,383.72 L 363.71,425.19 L 364.77,433.37 L 363.44,440.92 L 361.62,446.57 L 357.93,452.21 L 336.86,468.57 L 333.97,469.82 L 330.82,469.02 L 328.99,466.08 L 321.35,414.92 L 319.26,380.79 L 315.57,319.40 L 312.95,255.26 L 310.28,196.81 L 311.35,187.21 L 315.57,181.52 L 322.15,178.41 L 331.35,176.72 L 340.82,177.34 L 352.64,179.43 L 364.77,184.68 L 375.00,191.17 L 385.00,200.37 L 391.09,209.39 L 402.38,235.79 L 408.69,246.91 L 414.73,253.40 L 422.65,259.26 L 432.11,264.51 L 445.27,267.44 L 459.72,267.66 L 469.98,265.53 L 483.67,259.66 L 519.72,243.57 L 527.10,238.73 L 533.41,233.08 L 536.57,227.84 L 540.48,221.97 L 540.48,216.73 L 537.32,211.30 L 531.01,205.84 L 522.34,199.97 L 249.25,62.53 L 244.27,60.22 L 236.36,60.00 L 232.94,62.93 L 220.85,86.00 L 219.78,95.20 L 220.05,112.58 L 223.47,207.92 L 231.38,312.47" 
        fill="none" 
        stroke="#1a3a52" 
        stroke-width="16" 
        stroke-linecap="round" 
        stroke-linejoin="round"/>
  <path d="M 231.38,312.47 L 235.56,447.19 L 239.52,535.42 L 241.39,539.38 L 245.30,540.00 L 249.52,538.98 L 252.68,536.89 L 272.94,518.44 L 278.46,516.58 L 284.50,516.98 L 319.75,527.24 L 328.19,528.09 L 335.84,527.64 L 567.06,487.42 L 574.97,485.33 L 579.19,481.37 L 580.22,476.31 L 579.42,471.50 L 576.79,466.08 L 571.82,460.61 L 566.04,456.21 L 558.13,450.75 L 530.26,432.12 L 507.85,411.19 L 502.34,406.34 L 497.90,399.45 L 487.90,379.10 L 484.47,374.70 L 479.19,371.58 L 473.94,369.05 L 465.54,368.21 L 440.25,371.98 L 433.40,371.76 L 426.34,370.52 L 420.51,367.81 L 413.45,361.94 L 362.11,303.49 L 357.13,299.49 L 350.02,298.47 L 345.57,301.58 L 343.97,307.89 L 344.24,317.49 L 356.60,383.72 L 363.71,425.19 L 364.77,433.37 L 363.44,440.92 L 361.62,446.57 L 357.93,452.21 L 336.86,468.57 L 333.97,469.82 L 330.82,469.02 L 328.99,466.08 L 321.35,414.92 L 319.26,380.79 L 315.57,319.40 L 312.95,255.26 L 310.28,196.81 L 311.35,187.21 L 315.57,181.52 L 322.15,178.41 L 331.35,176.72 L 340.82,177.34 L 352.64,179.43 L 364.77,184.68 L 375.00,191.17 L 385.00,200.37 L 391.09,209.39 L 402.38,235.79 L 408.69,246.91 L 414.73,253.40 L 422.65,259.26 L 432.11,264.51 L 445.27,267.44 L 459.72,267.66 L 469.98,265.53 L 483.67,259.66 L 519.72,243.57 L 527.10,238.73 L 533.41,233.08 L 536.57,227.84 L 540.48,221.97 L 540.48,216.73 L 537.32,211.30 L 531.01,205.84 L 522.34,199.97 L 249.25,62.53 L 244.27,60.22 L 236.36,60.00 L 232.94,62.93 L 220.85,86.00 L 219.78,95.20 L 220.05,112.58 L 223.47,207.92 L 231.38,312.47" 
        fill="none" 
        stroke="#00bfff" 
        stroke-width="8" 
        stroke-linecap="round" 
        stroke-linejoin="round"
        filter="url(#glow-strong)"
        opacity="0.9"/>
</svg>