<svg xmlns="http://www.w3.org/2000/svg" viewBox="0 0 800 600" style="background: transparent;">
  <defs>
    <filter id="glow">
      <feGaussianBlur stdDeviation="4" result="coloredBlur"/>
      <feMerge>
        <feMergeNode in="coloredBlur"/>
        <feMergeNode in="SourceGraphic"/>
      </feMerge>
    </filter>
    <filter id="glow-strong">
      <feGaussianBlur stdDeviation="8" result="coloredBlur"/>
      <feMerge>
        <feMergeNode in="coloredBlur"/>
        <feMergeNode in="coloredBlur"/>
        <feMergeNode in="SourceGraphic"/>
      </feMerge>
    </filter>
  </defs>
  <path d="M 307.80,489.10 L 266.35,535.24 L 265.91,537.31 L 267.75,539.15 L 271.58,540.00 L 275.85,539.25 L 289.50,534.87 L 322.61,524.75 L 338.53,518.51 L 355.10,510.69 L 369.97,502.77 L 381.75,494.59 L 445.05,446.51 L 449.50,443.81 L 457.14,440.78 L 470.79,435.17 L 476.77,431.39 L 481.82,426.26 L 485.05,421.60 L 487.20,416.37 L 489.04,406.71 L 490.10,403.29 L 491.94,400.13 L 495.46,395.99 L 526.74,364.12 L 546.65,343.87 L 552.16,336.31 L 555.68,330.69 L 559.83,321.66 L 584.81,266.12 L 623.13,181.79 L 632.01,161.52 L 632.48,158.23 L 631.55,154.58 L 628.49,151.66 L 624.04,149.20 L 618.37,147.25 L 615.00,145.18 L 612.70,142.75 L 610.86,139.07 L 611.17,135.42 L 618.83,113.57 L 618.68,109.79 L 617.46,106.37 L 613.32,102.59 L 608.40,100.03 L 521.07,61.58 L 515.55,60.10 L 510.04,60.00 L 504.21,61.09 L 499.45,63.29 L 496.08,66.45 L 494.71,69.63 L 494.40,73.05 L 496.08,76.23 L 499.14,79.52 L 503.59,81.83 L 541.76,96.84 L 545.90,99.54 L 548.18,102.23 L 549.11,105.39 L 548.64,109.30 L 532.85,138.84 L 527.96,150.90 L 516.77,188.14 L 511.26,209.50 L 510.04,213.15 L 507.27,217.06 L 503.59,220.24 L 498.08,223.66 L 491.94,226.22 L 485.21,227.93 L 478.14,228.66 L 455.30,229.64 L 446.58,229.02 L 438.60,227.57 L 430.50,225.37 L 423.90,222.55 L 416.23,218.04 L 411.34,213.54 L 405.98,207.06 L 384.36,172.63 L 365.05,142.00 L 360.90,137.23 L 356.01,133.95 L 349.28,131.51 L 342.52,130.30 L 336.26,130.17 L 329.96,131.02 L 324.60,132.60 L 315.70,136.28 L 309.87,137.86 L 302.83,138.58 L 295.79,138.09 L 289.34,136.77 L 283.83,134.31 L 280.30,131.51 L 276.01,127.73 L 240.61,92.34 L 237.09,90.27 L 232.79,88.79 L 227.59,88.07 L 221.76,88.30 L 216.72,89.78 L 192.79,100.88 L 178.71,107.46 L 175.19,110.38 L 171.51,113.93 L 169.36,117.35 L 167.83,121.39 L 167.52,125.53 L 168.58,130.53 L 171.04,134.80 L 174.25,140.29 L 179.02,148.60 L 187.28,158.00 L 196.34,166.18 L 210.11,176.05 L 233.10,190.34 L 246.59,197.04 L 258.09,201.32 L 317.25,220.97 L 325.82,224.38 L 333.95,228.42 L 341.46,232.93 L 347.88,237.82 L 353.86,242.95 L 361.84,252.32 L 368.28,261.36 L 382.99,282.23 L 385.58,286.76 L 387.13,291.62 L 387.42,297.73 L 385.89,303.22 L 377.16,317.52 L 367.66,333.26 L 356.17,352.91 L 353.24,360.21 L 350.50,368.88 L 348.81,376.94 L 347.73,383.77 L 344.36,415.38 L 344.98,417.46 L 346.97,418.93 L 350.03,419.42 L 355.23,418.93 L 360.62,418.93 L 364.30,419.42 L 366.73,421.13 L 367.35,423.07 L 365.82,425.64 L 346.97,445.29 L 307.80,489.10" 
        fill="none" 
        stroke="#1a3a52" 
        stroke-width="16" 
        stroke-linecap="round" 
        stroke-linejoin="round"/>
  <path d="M 307.80,489.10 L 266.35,535.24 L 265.91,537.31 L 267.75,539.15 L 271.58,540.00 L 275.85,539.25 L 289.50,534.87 L 322.61,524.75 L 338.53,518.51 L 355.10,510.69 L 369.97,502.77 L 381.75,494.59 L 445.05,446.51 L 449.50,443.81 L 457.14,440.78 L 470.79,435.17 L 476.77,431.39 L 481.82,426.26 L 485.05,421.60 L 487.20,416.37 L 489.04,406.71 L 490.10,403.29 L 491.94,400.13 L 495.46,395.99 L 526.74,364.12 L 546.65,343.87 L 552.16,336.31 L 555.68,330.69 L 559.83,321.66 L 584.81,266.12 L 623.13,181.79 L 632.01,161.52 L 632.48,158.23 L 631.55,154.58 L 628.49,151.66 L 624.04,149.20 L 618.37,147.25 L 615.00,145.18 L 612.70,142.75 L 610.86,139.07 L 611.17,135.42 L 618.83,113.57 L 618.68,109.79 L 617.46,106.37 L 613.32,102.59 L 608.40,100.03 L 521.07,61.58 L 515.55,60.10 L 510.04,60.00 L 504.21,61.09 L 499.45,63.29 L 496.08,66.45 L 494.71,69.63 L 494.40,73.05 L 496.08,76.23 L 499.14,79.52 L 503.59,81.83 L 541.76,96.84 L 545.90,99.54 L 548.18,102.23 L 549.11,105.39 L 548.64,109.30 L 532.85,138.84 L 527.96,150.90 L 516.77,188.14 L 511.26,209.50 L 510.04,213.15 L 507.27,217.06 L 503.59,220.24 L 498.08,223.66 L 491.94,226.22 L 485.21,227.93 L 478.14,228.66 L 455.30,229.64 L 446.58,229.02 L 438.60,227.57 L 430.50,225.37 L 423.90,222.55 L 416.23,218.04 L 411.34,213.54 L 405.98,207.06 L 384.36,172.63 L 365.05,142.00 L 360.90,137.23 L 356.01,133.95 L 349.28,131.51 L 342.52,130.30 L 336.26,130.17 L 329.96,131.02 L 324.60,132.60 L 315.70,136.28 L 309.87,137.86 L 302.83,138.58 L 295.79,138.09 L 289.34,136.77 L 283.83,134.31 L 280.30,131.51 L 276.01,127.73 L 240.61,92.34 L 237.09,90.27 L 232.79,88.79 L 227.59,88.07 L 221.76,88.30 L 216.72,89.78 L 192.79,100.88 L 178.71,107.46 L 175.19,110.38 L 171.51,113.93 L 169.36,117.35 L 167.83,121.39 L 167.52,125.53 L 168.58,130.53 L 171.04,134.80 L 174.25,140.29 L 179.02,148.60 L 187.28,158.00 L 196.34,166.18 L 210.11,176.05 L 233.10,190.34 L 246.59,197.04 L 258.09,201.32 L 317.25,220.97 L 325.82,224.38 L 333.95,228.42 L 341.46,232.93 L 347.88,237.82 L 353.86,242.95 L 361.84,252.32 L 368.28,261.36 L 382.99,282.23 L 385.58,286.76 L 387.13,291.62 L 387.42,297.73 L 385.89,303.22 L 377.16,317.52 L 367.66,333.26 L 356.17,352.91 L 353.24,360.21 L 350.50,368.88 L 348.81,376.94 L 347.73,383.77 L 344.36,415.38 L 344.98,417.46 L 346.97,418.93 L 350.03,419.42 L 355.23,418.93 L 360.62,418.93 L 364.30,419.42 L 366.73,421.13 L 367.35,423.07 L 365.82,425.64 L 346.97,445.29 L 307.80,489.10" 
        fill="none" 
        stroke="#00bfff" 
        stroke-width="8" 
        stroke-linecap="round" 
        stroke-linejoin="round"
        filter="url(#glow-strong)"
        opacity="0.9"/>
</svg>