<svg xmlns="http://www.w3.org/2000/svg" viewBox="0 0 800 600" style="background: transparent;">
  <defs>
    <filter id="glow">
      <feGaussianBlur stdDeviation="4" result="coloredBlur"/>
      <feMerge>
        <feMergeNode in="coloredBlur"/>
        <feMergeNode in="SourceGraphic"/>
      </feMerge>
    </filter>
    <filter id="glow-strong">
      <feGaussianBlur stdDeviation="8" result="coloredBlur"/>
      <feMerge>
        <feMergeNode in="coloredBlur"/>
        <feMergeNode in="coloredBlur"/>
        <feMergeNode in="SourceGraphic"/>
      </feMerge>
    </filter>
  </defs>
  <path d="M 360.88,440.23 L 501.31,439.32 L 520.59,437.19 L 535.26,430.77 L 548.35,417.74 L 556.05,405.43 L 559.92,391.25 L 559.92,375.37 L 556.59,359.98 L 546.04,347.67 L 535.50,337.49 L 521.07,332.52 L 513.37,331.79 L 435.97,333.73 L 422.58,329.12 L 414.64,321.97 L 408.70,313.97 L 406.15,303.79 L 405.91,218.08 L 409.49,207.78 L 415.12,200.20 L 422.34,193.60 L 434.94,187.41 L 446.28,185.05 L 459.61,184.32 L 469.43,185.05 L 485.37,193.11 L 574.05,250.15 L 610.17,284.15 L 618.17,291.73 L 619.45,297.91 L 619.20,391.55 L 623.81,401.25 L 636.90,407.37 L 653.87,409.07 L 673.94,401.43 L 687.09,397.13 L 700.97,396.22 L 712.00,404.28 L 720.00,418.95 L 719.45,433.86 L 710.73,446.65 L 698.36,455.86 L 687.57,459.92 L 585.74,479.56 L 306.26,484.29 L 129.88,479.56 L 113.15,474.11 L 99.27,465.56 L 89.52,453.98 L 83.82,440.71 L 80.00,427.25 L 80.24,415.86 L 81.52,402.59 L 83.82,390.77 L 90.00,379.86 L 98.49,368.76 L 109.28,359.31 L 121.88,351.49 L 140.67,346.03 L 164.86,340.82 L 183.59,335.85 L 189.77,330.03 L 196.98,319.61 L 198.13,310.46 L 196.56,298.88 L 180.62,219.05 L 179.89,210.81 L 180.13,200.38 L 182.43,192.57 L 186.80,183.60 L 192.19,176.02 L 198.92,171.05 L 272.56,118.98 L 281.29,115.95 L 290.81,115.71 L 302.14,118.32 L 311.66,123.95 L 320.93,134.62 L 323.72,143.83 L 326.81,325.79 L 322.99,334.52 L 316.26,340.46 L 306.02,345.67 L 143.64,381.37 L 134.37,388.71 L 128.73,398.65 L 126.37,409.07 L 130.25,420.65 L 135.64,429.68 L 145.16,436.77 L 159.28,440.77 L 360.88,440.23" 
        fill="none" 
        stroke="#1a3a52" 
        stroke-width="16" 
        stroke-linecap="round" 
        stroke-linejoin="round"/>
  <path d="M 360.88,440.23 L 501.31,439.32 L 520.59,437.19 L 535.26,430.77 L 548.35,417.74 L 556.05,405.43 L 559.92,391.25 L 559.92,375.37 L 556.59,359.98 L 546.04,347.67 L 535.50,337.49 L 521.07,332.52 L 513.37,331.79 L 435.97,333.73 L 422.58,329.12 L 414.64,321.97 L 408.70,313.97 L 406.15,303.79 L 405.91,218.08 L 409.49,207.78 L 415.12,200.20 L 422.34,193.60 L 434.94,187.41 L 446.28,185.05 L 459.61,184.32 L 469.43,185.05 L 485.37,193.11 L 574.05,250.15 L 610.17,284.15 L 618.17,291.73 L 619.45,297.91 L 619.20,391.55 L 623.81,401.25 L 636.90,407.37 L 653.87,409.07 L 673.94,401.43 L 687.09,397.13 L 700.97,396.22 L 712.00,404.28 L 720.00,418.95 L 719.45,433.86 L 710.73,446.65 L 698.36,455.86 L 687.57,459.92 L 585.74,479.56 L 306.26,484.29 L 129.88,479.56 L 113.15,474.11 L 99.27,465.56 L 89.52,453.98 L 83.82,440.71 L 80.00,427.25 L 80.24,415.86 L 81.52,402.59 L 83.82,390.77 L 90.00,379.86 L 98.49,368.76 L 109.28,359.31 L 121.88,351.49 L 140.67,346.03 L 164.86,340.82 L 183.59,335.85 L 189.77,330.03 L 196.98,319.61 L 198.13,310.46 L 196.56,298.88 L 180.62,219.05 L 179.89,210.81 L 180.13,200.38 L 182.43,192.57 L 186.80,183.60 L 192.19,176.02 L 198.92,171.05 L 272.56,118.98 L 281.29,115.95 L 290.81,115.71 L 302.14,118.32 L 311.66,123.95 L 320.93,134.62 L 323.72,143.83 L 326.81,325.79 L 322.99,334.52 L 316.26,340.46 L 306.02,345.67 L 143.64,381.37 L 134.37,388.71 L 128.73,398.65 L 126.37,409.07 L 130.25,420.65 L 135.64,429.68 L 145.16,436.77 L 159.28,440.77 L 360.88,440.23" 
        fill="none" 
        stroke="#00bfff" 
        stroke-width="8" 
        stroke-linecap="round" 
        stroke-linejoin="round"
        filter="url(#glow-strong)"
        opacity="0.9"/>
</svg>