<svg xmlns="http://www.w3.org/2000/svg" viewBox="0 0 800 600" style="background: transparent;">
  <defs>
    <filter id="glow">
      <feGaussianBlur stdDeviation="4" result="coloredBlur"/>
      <feMerge>
        <feMergeNode in="coloredBlur"/>
        <feMergeNode in="SourceGraphic"/>
      </feMerge>
    </filter>
    <filter id="glow-strong">
      <feGaussianBlur stdDeviation="8" result="coloredBlur"/>
      <feMerge>
        <feMergeNode in="coloredBlur"/>
        <feMergeNode in="coloredBlur"/>
        <feMergeNode in="SourceGraphic"/>
      </feMerge>
    </filter>
  </defs>
  <path d="M 444.38,535.46 L 529.31,540.00 L 544.41,539.44 L 556.02,537.07 L 563.58,533.99 L 572.60,527.55 L 578.30,520.21 L 582.91,510.96 L 589.38,495.28 L 596.01,479.87 L 599.87,462.85 L 601.52,452.14 L 603.73,426.19 L 604.66,404.03 L 606.12,395.37 L 611.48,387.28 L 621.59,375.99 L 625.85,369.54 L 625.67,364.69 L 623.80,358.99 L 609.45,335.65 L 608.52,326.25 L 610.73,319.53 L 615.90,313.80 L 630.09,301.63 L 633.39,296.03 L 633.76,289.43 L 631.36,283.43 L 622.71,276.83 L 611.66,271.97 L 596.54,266.56 L 584.77,262.30 L 576.46,257.32 L 566.91,247.48 L 548.11,225.79 L 444.75,108.86 L 410.86,76.43 L 401.28,68.50 L 393.56,64.26 L 384.53,61.46 L 375.13,60.00 L 366.48,60.44 L 356.90,61.77 L 348.80,63.95 L 341.61,67.47 L 335.51,73.07 L 333.68,75.25 L 324.47,87.57 L 314.16,98.59 L 303.12,107.68 L 295.55,113.25 L 287.09,118.98 L 272.15,128.38 L 238.82,152.87 L 235.49,154.18 L 230.88,154.49 L 226.31,153.15 L 212.30,145.37 L 207.51,144.34 L 202.72,144.65 L 198.67,145.68 L 192.94,149.04 L 186.87,152.87 L 179.31,159.03 L 173.80,165.63 L 169.91,172.38 L 166.61,180.01 L 166.24,183.09 L 167.17,186.17 L 169.91,189.10 L 176.54,195.57 L 278.25,277.11 L 301.09,295.16 L 305.85,298.55 L 314.16,301.91 L 324.09,303.38 L 332.22,303.53 L 343.45,302.94 L 374.76,300.02 L 385.09,299.27 L 395.77,298.99 L 407.94,300.02 L 418.98,301.76 L 428.91,305.15 L 493.77,336.83 L 498.00,338.58 L 503.17,340.19 L 508.49,340.51 L 512.54,339.60 L 516.24,337.55 L 518.45,335.21 L 529.50,311.44 L 532.83,308.08 L 537.41,306.02 L 542.76,305.87 L 548.67,307.48 L 552.34,310.41 L 554.74,313.49 L 559.35,321.27 L 563.02,327.87 L 565.79,334.34 L 567.25,340.63 L 568.19,347.26 L 567.44,354.14 L 565.23,357.22 L 559.53,361.17 L 349.33,479.12 L 343.64,481.33 L 335.70,483.82 L 325.96,484.70 L 315.81,483.98 L 305.51,480.90 L 301.81,478.10 L 299.23,473.99 L 294.99,452.58 L 292.60,448.19 L 287.46,444.64 L 279.71,442.31 L 271.25,441.56 L 261.85,443.05 L 255.22,445.82 L 251.17,449.06 L 248.03,452.86 L 247.47,456.97 L 248.78,461.38 L 253.91,468.57 L 280.99,501.56 L 289.67,507.88 L 298.14,513.17 L 310.31,519.61 L 320.23,523.88 L 332.78,527.12 L 343.64,529.29 L 366.67,531.07 L 444.38,535.46" 
        fill="none" 
        stroke="#1a3a52" 
        stroke-width="16" 
        stroke-linecap="round" 
        stroke-linejoin="round"/>
  <path d="M 444.38,535.46 L 529.31,540.00 L 544.41,539.44 L 556.02,537.07 L 563.58,533.99 L 572.60,527.55 L 578.30,520.21 L 582.91,510.96 L 589.38,495.28 L 596.01,479.87 L 599.87,462.85 L 601.52,452.14 L 603.73,426.19 L 604.66,404.03 L 606.12,395.37 L 611.48,387.28 L 621.59,375.99 L 625.85,369.54 L 625.67,364.69 L 623.80,358.99 L 609.45,335.65 L 608.52,326.25 L 610.73,319.53 L 615.90,313.80 L 630.09,301.63 L 633.39,296.03 L 633.76,289.43 L 631.36,283.43 L 622.71,276.83 L 611.66,271.97 L 596.54,266.56 L 584.77,262.30 L 576.46,257.32 L 566.91,247.48 L 548.11,225.79 L 444.75,108.86 L 410.86,76.43 L 401.28,68.50 L 393.56,64.26 L 384.53,61.46 L 375.13,60.00 L 366.48,60.44 L 356.90,61.77 L 348.80,63.95 L 341.61,67.47 L 335.51,73.07 L 333.68,75.25 L 324.47,87.57 L 314.16,98.59 L 303.12,107.68 L 295.55,113.25 L 287.09,118.98 L 272.15,128.38 L 238.82,152.87 L 235.49,154.18 L 230.88,154.49 L 226.31,153.15 L 212.30,145.37 L 207.51,144.34 L 202.72,144.65 L 198.67,145.68 L 192.94,149.04 L 186.87,152.87 L 179.31,159.03 L 173.80,165.63 L 169.91,172.38 L 166.61,180.01 L 166.24,183.09 L 167.17,186.17 L 169.91,189.10 L 176.54,195.57 L 278.25,277.11 L 301.09,295.16 L 305.85,298.55 L 314.16,301.91 L 324.09,303.38 L 332.22,303.53 L 343.45,302.94 L 374.76,300.02 L 385.09,299.27 L 395.77,298.99 L 407.94,300.02 L 418.98,301.76 L 428.91,305.15 L 493.77,336.83 L 498.00,338.58 L 503.17,340.19 L 508.49,340.51 L 512.54,339.60 L 516.24,337.55 L 518.45,335.21 L 529.50,311.44 L 532.83,308.08 L 537.41,306.02 L 542.76,305.87 L 548.67,307.48 L 552.34,310.41 L 554.74,313.49 L 559.35,321.27 L 563.02,327.87 L 565.79,334.34 L 567.25,340.63 L 568.19,347.26 L 567.44,354.14 L 565.23,357.22 L 559.53,361.17 L 349.33,479.12 L 343.64,481.33 L 335.70,483.82 L 325.96,484.70 L 315.81,483.98 L 305.51,480.90 L 301.81,478.10 L 299.23,473.99 L 294.99,452.58 L 292.60,448.19 L 287.46,444.64 L 279.71,442.31 L 271.25,441.56 L 261.85,443.05 L 255.22,445.82 L 251.17,449.06 L 248.03,452.86 L 247.47,456.97 L 248.78,461.38 L 253.91,468.57 L 280.99,501.56 L 289.67,507.88 L 298.14,513.17 L 310.31,519.61 L 320.23,523.88 L 332.78,527.12 L 343.64,529.29 L 366.67,531.07 L 444.38,535.46" 
        fill="none" 
        stroke="#00bfff" 
        stroke-width="8" 
        stroke-linecap="round" 
        stroke-linejoin="round"
        filter="url(#glow-strong)"
        opacity="0.9"/>
</svg>