<svg xmlns="http://www.w3.org/2000/svg" viewBox="0 0 800 600" style="background: transparent;">
  <defs>
    <filter id="glow">
      <feGaussianBlur stdDeviation="4" result="coloredBlur"/>
      <feMerge>
        <feMergeNode in="coloredBlur"/>
        <feMergeNode in="SourceGraphic"/>
      </feMerge>
    </filter>
    <filter id="glow-strong">
      <feGaussianBlur stdDeviation="8" result="coloredBlur"/>
      <feMerge>
        <feMergeNode in="coloredBlur"/>
        <feMergeNode in="coloredBlur"/>
        <feMergeNode in="SourceGraphic"/>
      </feMerge>
    </filter>
  </defs>
  <path d="M 475.14,192.43 L 483.55,165.01 L 489.82,144.79 L 493.30,129.84 L 493.77,117.50 L 488.34,84.42 L 489.34,80.47 L 493.13,77.99 L 507.14,73.64 L 509.92,72.20 L 511.26,69.33 L 510.76,66.43 L 508.78,63.54 L 504.99,61.31 L 500.20,60.00 L 493.94,60.00 L 487.03,61.06 L 470.55,64.32 L 459.32,66.96 L 448.63,71.03 L 438.41,75.76 L 414.83,89.93 L 400.82,99.12 L 398.18,101.99 L 397.54,104.36 L 397.70,106.72 L 400.15,111.99 L 400.99,115.25 L 400.49,117.89 L 398.84,120.12 L 371.97,143.09 L 367.21,145.96 L 358.13,150.44 L 352.70,153.59 L 346.77,159.10 L 343.46,165.01 L 341.15,171.05 L 340.34,175.89 L 340.51,211.73 L 340.51,214.74 L 338.70,217.10 L 335.38,218.94 L 329.62,219.86 L 321.88,218.55 L 317.42,218.16 L 311.99,219.22 L 307.37,221.31 L 304.09,223.54 L 301.11,226.29 L 299.30,228.80 L 296.82,233.78 L 294.67,239.94 L 292.22,247.57 L 291.89,254.00 L 288.74,281.43 L 289.08,296.27 L 289.58,308.21 L 291.05,321.33 L 293.03,331.69 L 295.01,339.85 L 308.85,378.94 L 311.16,382.51 L 314.47,383.93 L 317.93,384.46 L 323.02,384.73 L 326.98,385.65 L 330.79,387.21 L 334.91,390.25 L 338.03,393.78 L 340.84,398.63 L 354.51,437.61 L 359.94,458.75 L 361.75,473.59 L 362.59,488.82 L 362.42,493.80 L 361.59,499.04 L 351.53,533.71 L 351.20,535.80 L 351.53,537.63 L 353.85,539.47 L 358.30,540.00 L 361.11,539.33 L 363.09,537.77 L 363.73,536.46 L 364.90,528.72 L 366.54,516.89 L 367.21,512.96 L 369.36,508.62 L 376.60,498.26 L 383.03,489.07 L 415.50,430.26 L 419.28,422.66 L 467.40,261.21 L 469.38,254.53 L 468.90,252.30 L 466.76,250.57 L 462.94,249.54 L 460.49,247.82 L 459.49,245.87 L 459.66,243.36 L 468.40,215.41 L 475.14,192.43" 
        fill="none" 
        stroke="#1a3a52" 
        stroke-width="16" 
        stroke-linecap="round" 
        stroke-linejoin="round"/>
  <path d="M 475.14,192.43 L 483.55,165.01 L 489.82,144.79 L 493.30,129.84 L 493.77,117.50 L 488.34,84.42 L 489.34,80.47 L 493.13,77.99 L 507.14,73.64 L 509.92,72.20 L 511.26,69.33 L 510.76,66.43 L 508.78,63.54 L 504.99,61.31 L 500.20,60.00 L 493.94,60.00 L 487.03,61.06 L 470.55,64.32 L 459.32,66.96 L 448.63,71.03 L 438.41,75.76 L 414.83,89.93 L 400.82,99.12 L 398.18,101.99 L 397.54,104.36 L 397.70,106.72 L 400.15,111.99 L 400.99,115.25 L 400.49,117.89 L 398.84,120.12 L 371.97,143.09 L 367.21,145.96 L 358.13,150.44 L 352.70,153.59 L 346.77,159.10 L 343.46,165.01 L 341.15,171.05 L 340.34,175.89 L 340.51,211.73 L 340.51,214.74 L 338.70,217.10 L 335.38,218.94 L 329.62,219.86 L 321.88,218.55 L 317.42,218.16 L 311.99,219.22 L 307.37,221.31 L 304.09,223.54 L 301.11,226.29 L 299.30,228.80 L 296.82,233.78 L 294.67,239.94 L 292.22,247.57 L 291.89,254.00 L 288.74,281.43 L 289.08,296.27 L 289.58,308.21 L 291.05,321.33 L 293.03,331.69 L 295.01,339.85 L 308.85,378.94 L 311.16,382.51 L 314.47,383.93 L 317.93,384.46 L 323.02,384.73 L 326.98,385.65 L 330.79,387.21 L 334.91,390.25 L 338.03,393.78 L 340.84,398.63 L 354.51,437.61 L 359.94,458.75 L 361.75,473.59 L 362.59,488.82 L 362.42,493.80 L 361.59,499.04 L 351.53,533.71 L 351.20,535.80 L 351.53,537.63 L 353.85,539.47 L 358.30,540.00 L 361.11,539.33 L 363.09,537.77 L 363.73,536.46 L 364.90,528.72 L 366.54,516.89 L 367.21,512.96 L 369.36,508.62 L 376.60,498.26 L 383.03,489.07 L 415.50,430.26 L 419.28,422.66 L 467.40,261.21 L 469.38,254.53 L 468.90,252.30 L 466.76,250.57 L 462.94,249.54 L 460.49,247.82 L 459.49,245.87 L 459.66,243.36 L 468.40,215.41 L 475.14,192.43" 
        fill="none" 
        stroke="#00bfff" 
        stroke-width="8" 
        stroke-linecap="round" 
        stroke-linejoin="round"
        filter="url(#glow-strong)"
        opacity="0.9"/>
</svg>