<svg xmlns="http://www.w3.org/2000/svg" viewBox="0 0 800 600" style="background: transparent;">
  <defs>
    <filter id="glow">
      <feGaussianBlur stdDeviation="4" result="coloredBlur"/>
      <feMerge>
        <feMergeNode in="coloredBlur"/>
        <feMergeNode in="SourceGraphic"/>
      </feMerge>
    </filter>
    <filter id="glow-strong">
      <feGaussianBlur stdDeviation="8" result="coloredBlur"/>
      <feMerge>
        <feMergeNode in="coloredBlur"/>
        <feMergeNode in="coloredBlur"/>
        <feMergeNode in="SourceGraphic"/>
      </feMerge>
    </filter>
  </defs>
  <path d="M 249.76,110.44 L 201.58,100.11 L 192.80,99.42 L 182.23,99.42 L 172.80,102.00 L 166.35,104.33 L 157.81,109.00 L 151.66,113.71 L 146.94,119.07 L 143.42,125.37 L 140.49,131.73 L 140.19,138.47 L 140.49,146.22 L 141.68,152.07 L 143.72,157.68 L 147.54,162.59 L 152.85,166.81 L 164.61,171.23 L 175.48,171.23 L 183.96,168.45 L 187.49,165.17 L 189.87,161.65 L 190.12,156.74 L 188.38,149.74 L 184.86,139.22 L 183.96,134.75 L 186.05,130.29 L 191.01,125.62 L 199.54,122.84 L 208.92,124.48 L 213.94,127.26 L 217.16,131.92 L 220.09,136.64 L 223.02,142.94 L 224.80,149.94 L 225.40,157.93 L 223.91,164.68 L 219.20,172.17 L 215.97,176.83 L 206.29,186.91 L 180.44,210.53 L 160.49,232.76 L 144.01,247.94 L 123.47,267.84 L 117.02,277.22 L 114.04,283.97 L 92.90,337.07 L 86.15,353.00 L 80.30,368.68 L 80.00,372.65 L 82.63,375.92 L 87.94,377.81 L 97.02,376.37 L 106.45,371.01 L 114.34,365.40 L 122.28,358.16 L 133.44,348.33 L 143.12,336.18 L 160.19,310.67 L 183.07,276.28 L 190.41,266.70 L 197.76,259.21 L 206.00,252.41 L 215.67,247.94 L 225.99,244.67 L 236.56,242.83 L 248.87,242.83 L 259.74,244.67 L 270.31,247.94 L 280.88,253.60 L 290.90,260.60 L 298.79,268.54 L 307.33,284.22 L 320.53,308.09 L 326.13,315.33 L 331.99,320.25 L 339.33,323.97 L 350.20,327.99 L 360.47,328.68 L 369.31,327.99 L 377.25,325.41 L 384.29,321.44 L 389.26,317.91 L 393.67,313.70 L 415.41,277.67 L 420.72,272.76 L 427.17,271.12 L 433.32,272.06 L 438.93,273.95 L 460.67,298.51 L 463.59,303.42 L 463.59,307.84 L 461.81,312.31 L 408.66,389.47 L 375.46,435.32 L 339.04,486.78 L 334.07,488.17 L 329.06,487.03 L 324.35,483.51 L 318.79,478.15 L 313.48,472.54 L 308.52,469.71 L 302.32,468.08 L 295.86,469.02 L 289.41,473.93 L 281.77,481.18 L 277.95,487.03 L 275.62,492.39 L 274.43,500.38 L 275.02,507.63 L 276.51,514.62 L 279.14,521.17 L 286.19,529.11 L 292.94,533.58 L 302.32,537.10 L 312.34,538.94 L 320.28,539.63 L 329.96,539.19 L 342.56,536.61 L 350.80,533.58 L 359.33,529.61 L 371.04,520.23 L 381.37,507.83 L 492.97,361.88 L 562.59,272.06 L 598.72,225.27 L 630.43,182.94 L 672.41,129.39 L 717.37,73.22 L 720.00,68.31 L 719.70,63.64 L 715.88,60.37 L 709.73,60.81 L 697.07,65.97 L 689.73,70.44 L 681.54,75.55 L 595.49,175.94 L 591.67,177.78 L 584.63,178.27 L 476.79,156.49 L 249.76,110.44" 
        fill="none" 
        stroke="#1a3a52" 
        stroke-width="16" 
        stroke-linecap="round" 
        stroke-linejoin="round"/>
  <path d="M 249.76,110.44 L 201.58,100.11 L 192.80,99.42 L 182.23,99.42 L 172.80,102.00 L 166.35,104.33 L 157.81,109.00 L 151.66,113.71 L 146.94,119.07 L 143.42,125.37 L 140.49,131.73 L 140.19,138.47 L 140.49,146.22 L 141.68,152.07 L 143.72,157.68 L 147.54,162.59 L 152.85,166.81 L 164.61,171.23 L 175.48,171.23 L 183.96,168.45 L 187.49,165.17 L 189.87,161.65 L 190.12,156.74 L 188.38,149.74 L 184.86,139.22 L 183.96,134.75 L 186.05,130.29 L 191.01,125.62 L 199.54,122.84 L 208.92,124.48 L 213.94,127.26 L 217.16,131.92 L 220.09,136.64 L 223.02,142.94 L 224.80,149.94 L 225.40,157.93 L 223.91,164.68 L 219.20,172.17 L 215.97,176.83 L 206.29,186.91 L 180.44,210.53 L 160.49,232.76 L 144.01,247.94 L 123.47,267.84 L 117.02,277.22 L 114.04,283.97 L 92.90,337.07 L 86.15,353.00 L 80.30,368.68 L 80.00,372.65 L 82.63,375.92 L 87.94,377.81 L 97.02,376.37 L 106.45,371.01 L 114.34,365.40 L 122.28,358.16 L 133.44,348.33 L 143.12,336.18 L 160.19,310.67 L 183.07,276.28 L 190.41,266.70 L 197.76,259.21 L 206.00,252.41 L 215.67,247.94 L 225.99,244.67 L 236.56,242.83 L 248.87,242.83 L 259.74,244.67 L 270.31,247.94 L 280.88,253.60 L 290.90,260.60 L 298.79,268.54 L 307.33,284.22 L 320.53,308.09 L 326.13,315.33 L 331.99,320.25 L 339.33,323.97 L 350.20,327.99 L 360.47,328.68 L 369.31,327.99 L 377.25,325.41 L 384.29,321.44 L 389.26,317.91 L 393.67,313.70 L 415.41,277.67 L 420.72,272.76 L 427.17,271.12 L 433.32,272.06 L 438.93,273.95 L 460.67,298.51 L 463.59,303.42 L 463.59,307.84 L 461.81,312.31 L 408.66,389.47 L 375.46,435.32 L 339.04,486.78 L 334.07,488.17 L 329.06,487.03 L 324.35,483.51 L 318.79,478.15 L 313.48,472.54 L 308.52,469.71 L 302.32,468.08 L 295.86,469.02 L 289.41,473.93 L 281.77,481.18 L 277.95,487.03 L 275.62,492.39 L 274.43,500.38 L 275.02,507.63 L 276.51,514.62 L 279.14,521.17 L 286.19,529.11 L 292.94,533.58 L 302.32,537.10 L 312.34,538.94 L 320.28,539.63 L 329.96,539.19 L 342.56,536.61 L 350.80,533.58 L 359.33,529.61 L 371.04,520.23 L 381.37,507.83 L 492.97,361.88 L 562.59,272.06 L 598.72,225.27 L 630.43,182.94 L 672.41,129.39 L 717.37,73.22 L 720.00,68.31 L 719.70,63.64 L 715.88,60.37 L 709.73,60.81 L 697.07,65.97 L 689.73,70.44 L 681.54,75.55 L 595.49,175.94 L 591.67,177.78 L 584.63,178.27 L 476.79,156.49 L 249.76,110.44" 
        fill="none" 
        stroke="#00bfff" 
        stroke-width="8" 
        stroke-linecap="round" 
        stroke-linejoin="round"
        filter="url(#glow-strong)"
        opacity="0.9"/>
</svg>