<svg xmlns="http://www.w3.org/2000/svg" viewBox="0 0 800 600" style="background: transparent;">
  <defs>
    <filter id="glow">
      <feGaussianBlur stdDeviation="4" result="coloredBlur"/>
      <feMerge>
        <feMergeNode in="coloredBlur"/>
        <feMergeNode in="SourceGraphic"/>
      </feMerge>
    </filter>
    <filter id="glow-strong">
      <feGaussianBlur stdDeviation="8" result="coloredBlur"/>
      <feMerge>
        <feMergeNode in="coloredBlur"/>
        <feMergeNode in="coloredBlur"/>
        <feMergeNode in="SourceGraphic"/>
      </feMerge>
    </filter>
  </defs>
  <path d="M 242.41,178.38 L 125.22,241.60 L 90.57,259.87 L 87.45,263.39 L 85.60,266.92 L 86.13,270.88 L 88.46,273.96 L 91.85,276.03 L 96.30,277.48 L 102.81,278.14 L 112.45,278.14 L 139.31,277.70 L 157.27,275.63 L 173.69,272.33 L 190.91,267.75 L 203.94,262.78 L 213.80,258.20 L 309.46,207.13 L 316.46,204.66 L 323.24,203.61 L 330.02,203.61 L 335.53,204.88 L 341.51,206.34 L 346.18,208.80 L 350.10,211.71 L 352.70,214.39 L 355.03,218.14 L 355.82,223.33 L 355.56,226.24 L 353.49,230.20 L 351.68,234.12 L 324.30,265.46 L 321.44,271.27 L 320.91,275.85 L 322.49,279.77 L 324.56,284.75 L 327.16,289.32 L 357.41,330.00 L 411.07,403.26 L 420.71,414.88 L 431.94,425.05 L 445.98,436.06 L 448.85,439.14 L 450.96,442.27 L 451.44,445.79 L 449.90,449.75 L 425.42,512.00 L 424.90,516.76 L 425.64,521.33 L 427.49,525.91 L 430.35,530.27 L 435.55,533.79 L 441.80,536.92 L 448.32,539.16 L 454.83,540.00 L 462.93,539.82 L 470.73,538.55 L 480.15,535.86 L 490.80,531.28 L 498.37,527.76 L 507.22,523.40 L 516.60,518.43 L 528.35,510.15 L 578.37,473.61 L 580.70,470.09 L 581.49,467.36 L 581.23,464.45 L 578.63,461.99 L 574.45,459.30 L 571.06,457.01 L 569.78,454.94 L 570.04,451.20 L 571.32,447.06 L 589.55,400.75 L 593.47,394.54 L 596.33,392.03 L 599.19,389.79 L 603.11,387.67 L 607.82,386.66 L 616.67,385.43 L 654.44,381.69 L 662.28,379.62 L 667.21,377.33 L 671.39,375.04 L 675.04,371.08 L 676.32,367.56 L 677.91,363.42 L 677.91,358.84 L 676.58,353.86 L 667.21,309.27 L 666.94,301.34 L 667.74,296.37 L 669.80,291.22 L 672.71,286.20 L 709.69,246.36 L 713.34,240.37 L 714.14,236.19 L 714.40,232.27 L 713.61,228.13 L 712.29,223.95 L 709.69,220.21 L 705.51,216.51 L 641.94,168.34 L 585.41,124.14 L 566.13,109.62 L 561.42,107.77 L 557.01,107.33 L 552.83,107.77 L 549.18,109.22 L 545.52,111.46 L 506.96,140.96 L 500.71,145.10 L 471.25,161.30 L 466.06,163.15 L 460.86,164.60 L 454.57,165.22 L 449.11,164.82 L 441.80,162.53 L 437.40,159.23 L 434.27,155.67 L 432.42,152.58 L 431.94,148.40 L 432.69,144.26 L 435.29,140.34 L 438.68,137.22 L 496.79,105.65 L 507.49,99.05 L 510.61,95.48 L 512.95,90.51 L 514.00,84.70 L 513.21,79.33 L 510.61,74.75 L 507.49,70.39 L 502.56,66.65 L 494.45,63.13 L 486.13,60.84 L 477.02,60.00 L 467.38,60.84 L 458.75,63.13 L 450.69,66.87 L 242.41,178.38" 
        fill="none" 
        stroke="#1a3a52" 
        stroke-width="16" 
        stroke-linecap="round" 
        stroke-linejoin="round"/>
  <path d="M 242.41,178.38 L 125.22,241.60 L 90.57,259.87 L 87.45,263.39 L 85.60,266.92 L 86.13,270.88 L 88.46,273.96 L 91.85,276.03 L 96.30,277.48 L 102.81,278.14 L 112.45,278.14 L 139.31,277.70 L 157.27,275.63 L 173.69,272.33 L 190.91,267.75 L 203.94,262.78 L 213.80,258.20 L 309.46,207.13 L 316.46,204.66 L 323.24,203.61 L 330.02,203.61 L 335.53,204.88 L 341.51,206.34 L 346.18,208.80 L 350.10,211.71 L 352.70,214.39 L 355.03,218.14 L 355.82,223.33 L 355.56,226.24 L 353.49,230.20 L 351.68,234.12 L 324.30,265.46 L 321.44,271.27 L 320.91,275.85 L 322.49,279.77 L 324.56,284.75 L 327.16,289.32 L 357.41,330.00 L 411.07,403.26 L 420.71,414.88 L 431.94,425.05 L 445.98,436.06 L 448.85,439.14 L 450.96,442.27 L 451.44,445.79 L 449.90,449.75 L 425.42,512.00 L 424.90,516.76 L 425.64,521.33 L 427.49,525.91 L 430.35,530.27 L 435.55,533.79 L 441.80,536.92 L 448.32,539.16 L 454.83,540.00 L 462.93,539.82 L 470.73,538.55 L 480.15,535.86 L 490.80,531.28 L 498.37,527.76 L 507.22,523.40 L 516.60,518.43 L 528.35,510.15 L 578.37,473.61 L 580.70,470.09 L 581.49,467.36 L 581.23,464.45 L 578.63,461.99 L 574.45,459.30 L 571.06,457.01 L 569.78,454.94 L 570.04,451.20 L 571.32,447.06 L 589.55,400.75 L 593.47,394.54 L 596.33,392.03 L 599.19,389.79 L 603.11,387.67 L 607.82,386.66 L 616.67,385.43 L 654.44,381.69 L 662.28,379.62 L 667.21,377.33 L 671.39,375.04 L 675.04,371.08 L 676.32,367.56 L 677.91,363.42 L 677.91,358.84 L 676.58,353.86 L 667.21,309.27 L 666.94,301.34 L 667.74,296.37 L 669.80,291.22 L 672.71,286.20 L 709.69,246.36 L 713.34,240.37 L 714.14,236.19 L 714.40,232.27 L 713.61,228.13 L 712.29,223.95 L 709.69,220.21 L 705.51,216.51 L 641.94,168.34 L 585.41,124.14 L 566.13,109.62 L 561.42,107.77 L 557.01,107.33 L 552.83,107.77 L 549.18,109.22 L 545.52,111.46 L 506.96,140.96 L 500.71,145.10 L 471.25,161.30 L 466.06,163.15 L 460.86,164.60 L 454.57,165.22 L 449.11,164.82 L 441.80,162.53 L 437.40,159.23 L 434.27,155.67 L 432.42,152.58 L 431.94,148.40 L 432.69,144.26 L 435.29,140.34 L 438.68,137.22 L 496.79,105.65 L 507.49,99.05 L 510.61,95.48 L 512.95,90.51 L 514.00,84.70 L 513.21,79.33 L 510.61,74.75 L 507.49,70.39 L 502.56,66.65 L 494.45,63.13 L 486.13,60.84 L 477.02,60.00 L 467.38,60.84 L 458.75,63.13 L 450.69,66.87 L 242.41,178.38" 
        fill="none" 
        stroke="#00bfff" 
        stroke-width="8" 
        stroke-linecap="round" 
        stroke-linejoin="round"
        filter="url(#glow-strong)"
        opacity="0.9"/>
</svg>