<svg xmlns="http://www.w3.org/2000/svg" viewBox="0 0 800 600" style="background: transparent;">
  <defs>
    <filter id="glow">
      <feGaussianBlur stdDeviation="4" result="coloredBlur"/>
      <feMerge>
        <feMergeNode in="coloredBlur"/>
        <feMergeNode in="SourceGraphic"/>
      </feMerge>
    </filter>
    <filter id="glow-strong">
      <feGaussianBlur stdDeviation="8" result="coloredBlur"/>
      <feMerge>
        <feMergeNode in="coloredBlur"/>
        <feMergeNode in="coloredBlur"/>
        <feMergeNode in="SourceGraphic"/>
      </feMerge>
    </filter>
  </defs>
  <path d="M 486.01,390.65 L 474.66,390.76 L 403.86,401.63 L 378.59,403.54 L 363.87,403.65 L 289.99,398.92 L 253.71,392.78 L 249.20,390.65 L 247.04,388.74 L 246.40,386.96 L 243.74,378.69 L 241.78,376.06 L 237.27,373.82 L 203.89,361.67 L 198.90,357.68 L 145.04,262.19 L 144.41,259.65 L 144.49,256.55 L 150.19,241.71 L 150.19,239.36 L 148.34,236.48 L 146.26,234.51 L 82.49,195.49 L 80.66,193.25 L 80.00,190.59 L 80.80,187.74 L 83.16,184.33 L 86.20,182.48 L 89.66,181.73 L 94.97,181.79 L 197.80,191.34 L 209.51,191.92 L 226.80,191.23 L 239.34,189.92 L 256.42,187.60 L 273.94,185.30 L 283.02,184.03 L 288.75,184.86 L 293.09,186.41 L 298.71,190.31 L 304.36,197.62 L 313.02,213.09 L 315.04,219.87 L 315.68,227.57 L 313.99,235.40 L 301.45,277.86 L 301.62,280.51 L 303.39,283.56 L 310.70,291.78 L 320.25,302.41 L 323.04,303.43 L 326.75,303.71 L 329.32,302.91 L 343.47,298.84 L 347.81,298.42 L 496.08,299.11 L 497.99,298.53 L 499.85,295.38 L 501.23,292.61 L 502.84,291.92 L 505.97,291.86 L 565.17,309.30 L 572.64,312.29 L 597.30,324.47 L 611.42,333.66 L 625.09,343.48 L 658.47,366.90 L 665.23,370.33 L 672.56,372.90 L 716.24,386.77 L 719.53,389.07 L 720.00,392.69 L 719.11,395.57 L 705.94,415.50 L 702.87,417.38 L 699.49,418.13 L 694.76,418.27 L 690.97,417.58 L 632.26,401.63 L 611.42,395.88 L 600.07,392.94 L 590.19,391.34 L 583.52,390.48 L 486.01,390.65" 
        fill="none" 
        stroke="#1a3a52" 
        stroke-width="16" 
        stroke-linecap="round" 
        stroke-linejoin="round"/>
  <path d="M 486.01,390.65 L 474.66,390.76 L 403.86,401.63 L 378.59,403.54 L 363.87,403.65 L 289.99,398.92 L 253.71,392.78 L 249.20,390.65 L 247.04,388.74 L 246.40,386.96 L 243.74,378.69 L 241.78,376.06 L 237.27,373.82 L 203.89,361.67 L 198.90,357.68 L 145.04,262.19 L 144.41,259.65 L 144.49,256.55 L 150.19,241.71 L 150.19,239.36 L 148.34,236.48 L 146.26,234.51 L 82.49,195.49 L 80.66,193.25 L 80.00,190.59 L 80.80,187.74 L 83.16,184.33 L 86.20,182.48 L 89.66,181.73 L 94.97,181.79 L 197.80,191.34 L 209.51,191.92 L 226.80,191.23 L 239.34,189.92 L 256.42,187.60 L 273.94,185.30 L 283.02,184.03 L 288.75,184.86 L 293.09,186.41 L 298.71,190.31 L 304.36,197.62 L 313.02,213.09 L 315.04,219.87 L 315.68,227.57 L 313.99,235.40 L 301.45,277.86 L 301.62,280.51 L 303.39,283.56 L 310.70,291.78 L 320.25,302.41 L 323.04,303.43 L 326.75,303.71 L 329.32,302.91 L 343.47,298.84 L 347.81,298.42 L 496.08,299.11 L 497.99,298.53 L 499.85,295.38 L 501.23,292.61 L 502.84,291.92 L 505.97,291.86 L 565.17,309.30 L 572.64,312.29 L 597.30,324.47 L 611.42,333.66 L 625.09,343.48 L 658.47,366.90 L 665.23,370.33 L 672.56,372.90 L 716.24,386.77 L 719.53,389.07 L 720.00,392.69 L 719.11,395.57 L 705.94,415.50 L 702.87,417.38 L 699.49,418.13 L 694.76,418.27 L 690.97,417.58 L 632.26,401.63 L 611.42,395.88 L 600.07,392.94 L 590.19,391.34 L 583.52,390.48 L 486.01,390.65" 
        fill="none" 
        stroke="#00bfff" 
        stroke-width="8" 
        stroke-linecap="round" 
        stroke-linejoin="round"
        filter="url(#glow-strong)"
        opacity="0.9"/>
</svg>