<svg xmlns="http://www.w3.org/2000/svg" viewBox="0 0 800 600" style="background: transparent;">
  <defs>
    <filter id="glow">
      <feGaussianBlur stdDeviation="4" result="coloredBlur"/>
      <feMerge>
        <feMergeNode in="coloredBlur"/>
        <feMergeNode in="SourceGraphic"/>
      </feMerge>
    </filter>
    <filter id="glow-strong">
      <feGaussianBlur stdDeviation="8" result="coloredBlur"/>
      <feMerge>
        <feMergeNode in="coloredBlur"/>
        <feMergeNode in="coloredBlur"/>
        <feMergeNode in="SourceGraphic"/>
      </feMerge>
    </filter>
  </defs>
  <path d="M 214.12,235.13 L 225.67,330.05 L 230.91,369.84 L 231.47,371.46 L 233.10,372.40 L 235.12,372.62 L 237.60,372.40 L 239.94,372.27 L 242.10,372.40 L 243.58,373.21 L 244.74,374.36 L 245.03,375.40 L 245.03,376.55 L 236.86,398.26 L 235.71,404.16 L 235.26,409.50 L 235.85,415.31 L 238.90,443.61 L 240.09,448.24 L 241.54,452.54 L 243.73,457.17 L 246.63,462.17 L 249.98,467.04 L 254.92,472.50 L 260.02,477.00 L 266.88,482.12 L 274.32,486.65 L 282.61,490.81 L 291.49,494.40 L 301.53,497.90 L 311.60,500.33 L 322.67,502.52 L 335.20,504.05 L 348.02,504.86 L 397.97,507.86 L 459.14,510.42 L 462.79,510.64 L 464.68,511.36 L 466.28,512.51 L 468.30,517.51 L 469.18,518.89 L 470.64,519.82 L 473.12,520.39 L 481.41,521.45 L 490.45,522.82 L 503.27,525.73 L 560.50,539.19 L 565.45,540.00 L 570.13,540.00 L 574.63,539.41 L 577.83,538.50 L 580.90,537.22 L 583.81,535.82 L 587.45,533.04 L 589.49,530.85 L 590.94,528.16 L 591.68,525.16 L 594.14,506.14 L 598.82,473.66 L 598.67,470.75 L 597.93,468.88 L 596.78,467.26 L 594.88,466.10 L 591.39,464.48 L 553.96,450.33 L 523.52,438.39 L 504.57,431.09 L 495.39,427.37 L 485.06,422.28 L 477.63,418.31 L 471.23,414.38 L 438.01,394.42 L 414.43,379.46 L 364.60,348.85 L 334.60,330.39 L 330.52,327.49 L 328.92,325.64 L 328.63,323.80 L 328.63,321.58 L 329.66,316.71 L 329.95,314.05 L 329.95,310.21 L 329.51,308.12 L 328.33,305.46 L 326.58,302.34 L 323.68,299.19 L 319.74,295.94 L 315.24,293.28 L 311.60,291.31 L 309.70,289.79 L 308.25,287.72 L 306.92,283.88 L 303.87,266.36 L 300.67,247.68 L 275.92,80.20 L 274.88,74.17 L 273.87,71.37 L 271.83,68.49 L 269.05,66.15 L 265.85,64.06 L 261.35,61.99 L 256.40,60.71 L 250.72,60.00 L 245.89,60.25 L 241.39,60.94 L 236.15,62.34 L 231.06,63.96 L 227.27,65.81 L 222.74,68.24 L 217.64,72.08 L 214.15,75.55 L 211.10,79.27 L 208.47,83.67 L 206.00,88.55 L 204.11,93.54 L 203.22,97.82 L 202.21,104.32 L 202.07,110.82 L 201.92,116.97 L 201.48,129.15 L 201.18,139.83 L 201.48,151.42 L 203.37,166.60 L 210.51,214.64 L 214.12,235.13" 
        fill="none" 
        stroke="#1a3a52" 
        stroke-width="16" 
        stroke-linecap="round" 
        stroke-linejoin="round"/>
  <path d="M 214.12,235.13 L 225.67,330.05 L 230.91,369.84 L 231.47,371.46 L 233.10,372.40 L 235.12,372.62 L 237.60,372.40 L 239.94,372.27 L 242.10,372.40 L 243.58,373.21 L 244.74,374.36 L 245.03,375.40 L 245.03,376.55 L 236.86,398.26 L 235.71,404.16 L 235.26,409.50 L 235.85,415.31 L 238.90,443.61 L 240.09,448.24 L 241.54,452.54 L 243.73,457.17 L 246.63,462.17 L 249.98,467.04 L 254.92,472.50 L 260.02,477.00 L 266.88,482.12 L 274.32,486.65 L 282.61,490.81 L 291.49,494.40 L 301.53,497.90 L 311.60,500.33 L 322.67,502.52 L 335.20,504.05 L 348.02,504.86 L 397.97,507.86 L 459.14,510.42 L 462.79,510.64 L 464.68,511.36 L 466.28,512.51 L 468.30,517.51 L 469.18,518.89 L 470.64,519.82 L 473.12,520.39 L 481.41,521.45 L 490.45,522.82 L 503.27,525.73 L 560.50,539.19 L 565.45,540.00 L 570.13,540.00 L 574.63,539.41 L 577.83,538.50 L 580.90,537.22 L 583.81,535.82 L 587.45,533.04 L 589.49,530.85 L 590.94,528.16 L 591.68,525.16 L 594.14,506.14 L 598.82,473.66 L 598.67,470.75 L 597.93,468.88 L 596.78,467.26 L 594.88,466.10 L 591.39,464.48 L 553.96,450.33 L 523.52,438.39 L 504.57,431.09 L 495.39,427.37 L 485.06,422.28 L 477.63,418.31 L 471.23,414.38 L 438.01,394.42 L 414.43,379.46 L 364.60,348.85 L 334.60,330.39 L 330.52,327.49 L 328.92,325.64 L 328.63,323.80 L 328.63,321.58 L 329.66,316.71 L 329.95,314.05 L 329.95,310.21 L 329.51,308.12 L 328.33,305.46 L 326.58,302.34 L 323.68,299.19 L 319.74,295.94 L 315.24,293.28 L 311.60,291.31 L 309.70,289.79 L 308.25,287.72 L 306.92,283.88 L 303.87,266.36 L 300.67,247.68 L 275.92,80.20 L 274.88,74.17 L 273.87,71.37 L 271.83,68.49 L 269.05,66.15 L 265.85,64.06 L 261.35,61.99 L 256.40,60.71 L 250.72,60.00 L 245.89,60.25 L 241.39,60.94 L 236.15,62.34 L 231.06,63.96 L 227.27,65.81 L 222.74,68.24 L 217.64,72.08 L 214.15,75.55 L 211.10,79.27 L 208.47,83.67 L 206.00,88.55 L 204.11,93.54 L 203.22,97.82 L 202.21,104.32 L 202.07,110.82 L 201.92,116.97 L 201.48,129.15 L 201.18,139.83 L 201.48,151.42 L 203.37,166.60 L 210.51,214.64 L 214.12,235.13" 
        fill="none" 
        stroke="#00bfff" 
        stroke-width="8" 
        stroke-linecap="round" 
        stroke-linejoin="round"
        filter="url(#glow-strong)"
        opacity="0.9"/>
</svg>