<svg xmlns="http://www.w3.org/2000/svg" viewBox="0 0 800 600" style="background: transparent;">
  <defs>
    <filter id="glow">
      <feGaussianBlur stdDeviation="4" result="coloredBlur"/>
      <feMerge>
        <feMergeNode in="coloredBlur"/>
        <feMergeNode in="SourceGraphic"/>
      </feMerge>
    </filter>
    <filter id="glow-strong">
      <feGaussianBlur stdDeviation="8" result="coloredBlur"/>
      <feMerge>
        <feMergeNode in="coloredBlur"/>
        <feMergeNode in="coloredBlur"/>
        <feMergeNode in="SourceGraphic"/>
      </feMerge>
    </filter>
  </defs>
  <path d="M 626.53,290.44 L 666.02,251.44 L 712.20,204.99 L 716.43,200.07 L 718.78,194.95 L 720.00,190.34 L 719.91,185.81 L 719.23,182.33 L 713.84,168.66 L 711.28,165.09 L 707.55,162.38 L 704.43,160.92 L 698.80,159.79 L 693.68,159.93 L 688.05,161.48 L 682.81,164.88 L 677.48,171.49 L 650.24,205.82 L 645.08,209.42 L 640.65,210.58 L 633.95,211.54 L 619.86,211.63 L 612.78,213.29 L 607.78,216.18 L 603.99,219.96 L 602.21,223.65 L 595.86,243.43 L 593.21,248.49 L 588.99,252.84 L 584.07,255.78 L 577.88,258.17 L 571.54,259.15 L 555.16,259.36 L 547.60,260.55 L 542.42,262.57 L 537.06,265.97 L 533.13,270.70 L 530.72,275.52 L 529.61,280.08 L 529.67,284.43 L 530.69,288.12 L 538.73,306.16 L 539.95,309.83 L 540.15,314.65 L 539.29,317.84 L 537.18,322.45 L 534.02,326.38 L 527.98,329.89 L 520.62,333.17 L 511.90,336.77 L 504.22,339.30 L 498.50,340.61 L 490.46,341.72 L 481.35,341.83 L 474.17,341.60 L 468.19,340.29 L 463.33,338.59 L 455.77,335.94 L 447.82,332.28 L 438.68,326.14 L 431.53,319.92 L 401.49,290.03 L 399.94,288.30 L 395.15,287.38 L 351.26,284.13 L 348.43,284.43 L 345.42,286.09 L 344.20,288.92 L 343.66,291.31 L 336.99,313.82 L 328.09,356.10 L 326.39,363.87 L 325.98,367.80 L 326.45,371.85 L 327.41,376.05 L 329.43,380.39 L 331.72,384.71 L 338.81,398.05 L 339.56,400.11 L 339.02,401.98 L 337.68,403.71 L 335.39,404.99 L 332.74,405.67 L 330.18,405.53 L 327.26,403.92 L 324.85,401.06 L 314.51,386.41 L 306.12,375.36 L 300.64,368.81 L 296.11,364.49 L 292.21,361.75 L 285.51,357.41 L 278.46,354.31 L 271.07,352.49 L 258.21,350.95 L 246.03,350.53 L 236.86,351.10 L 225.93,353.06 L 213.96,355.83 L 200.56,359.94 L 192.11,363.15 L 184.69,366.82 L 177.84,371.02 L 170.61,376.35 L 163.13,383.13 L 158.19,389.06 L 153.75,395.55 L 142.80,419.49 L 136.93,429.97 L 133.95,434.17 L 129.90,437.27 L 124.60,439.23 L 118.26,440.21 L 110.67,440.07 L 103.64,439.23 L 96.76,437.98 L 90.06,435.72 L 84.59,432.29 L 81.28,427.95 L 80.00,423.69 L 80.39,418.33 L 81.88,414.34 L 84.05,410.32 L 87.77,406.95 L 95.13,401.30 L 104.33,395.01 L 113.32,388.55 L 124.72,381.47 L 137.76,374.17 L 151.10,367.32 L 166.02,361.49 L 179.36,355.89 L 193.06,351.60 L 215.30,345.29 L 239.78,337.46 L 269.40,328.94 L 298.79,321.32 L 319.13,315.54 L 345.42,307.30 L 351.44,306.04 L 357.42,305.90 L 363.76,306.88 L 369.93,308.28 L 381.03,311.79 L 391.25,315.99 L 399.82,320.34 L 408.69,325.99 L 425.28,338.74 L 448.00,356.13 L 454.31,360.41 L 458.81,363.01 L 462.92,365.24 L 465.83,366.67 L 467.41,366.79 L 469.50,366.07 L 474.62,362.32 L 478.31,359.79 L 481.32,359.08 L 484.15,359.52 L 487.48,361.34 L 492.96,365.42 L 499.12,369.05 L 506.00,371.43 L 514.40,372.03 L 522.23,371.67 L 530.51,370.27 L 538.78,367.62 L 545.81,364.85 L 554.63,359.94 L 562.55,353.89 L 570.67,346.45 L 626.53,290.44" 
        fill="none" 
        stroke="#1a3a52" 
        stroke-width="16" 
        stroke-linecap="round" 
        stroke-linejoin="round"/>
  <path d="M 626.53,290.44 L 666.02,251.44 L 712.20,204.99 L 716.43,200.07 L 718.78,194.95 L 720.00,190.34 L 719.91,185.81 L 719.23,182.33 L 713.84,168.66 L 711.28,165.09 L 707.55,162.38 L 704.43,160.92 L 698.80,159.79 L 693.68,159.93 L 688.05,161.48 L 682.81,164.88 L 677.48,171.49 L 650.24,205.82 L 645.08,209.42 L 640.65,210.58 L 633.95,211.54 L 619.86,211.63 L 612.78,213.29 L 607.78,216.18 L 603.99,219.96 L 602.21,223.65 L 595.86,243.43 L 593.21,248.49 L 588.99,252.84 L 584.07,255.78 L 577.88,258.17 L 571.54,259.15 L 555.16,259.36 L 547.60,260.55 L 542.42,262.57 L 537.06,265.97 L 533.13,270.70 L 530.72,275.52 L 529.61,280.08 L 529.67,284.43 L 530.69,288.12 L 538.73,306.16 L 539.95,309.83 L 540.15,314.65 L 539.29,317.84 L 537.18,322.45 L 534.02,326.38 L 527.98,329.89 L 520.62,333.17 L 511.90,336.77 L 504.22,339.30 L 498.50,340.61 L 490.46,341.72 L 481.35,341.83 L 474.17,341.60 L 468.19,340.29 L 463.33,338.59 L 455.77,335.94 L 447.82,332.28 L 438.68,326.14 L 431.53,319.92 L 401.49,290.03 L 399.94,288.30 L 395.15,287.38 L 351.26,284.13 L 348.43,284.43 L 345.42,286.09 L 344.20,288.92 L 343.66,291.31 L 336.99,313.82 L 328.09,356.10 L 326.39,363.87 L 325.98,367.80 L 326.45,371.85 L 327.41,376.05 L 329.43,380.39 L 331.72,384.71 L 338.81,398.05 L 339.56,400.11 L 339.02,401.98 L 337.68,403.71 L 335.39,404.99 L 332.74,405.67 L 330.18,405.53 L 327.26,403.92 L 324.85,401.06 L 314.51,386.41 L 306.12,375.36 L 300.64,368.81 L 296.11,364.49 L 292.21,361.75 L 285.51,357.41 L 278.46,354.31 L 271.07,352.49 L 258.21,350.95 L 246.03,350.53 L 236.86,351.10 L 225.93,353.06 L 213.96,355.83 L 200.56,359.94 L 192.11,363.15 L 184.69,366.82 L 177.84,371.02 L 170.61,376.35 L 163.13,383.13 L 158.19,389.06 L 153.75,395.55 L 142.80,419.49 L 136.93,429.97 L 133.95,434.17 L 129.90,437.27 L 124.60,439.23 L 118.26,440.21 L 110.67,440.07 L 103.64,439.23 L 96.76,437.98 L 90.06,435.72 L 84.59,432.29 L 81.28,427.95 L 80.00,423.69 L 80.39,418.33 L 81.88,414.34 L 84.05,410.32 L 87.77,406.95 L 95.13,401.30 L 104.33,395.01 L 113.32,388.55 L 124.72,381.47 L 137.76,374.17 L 151.10,367.32 L 166.02,361.49 L 179.36,355.89 L 193.06,351.60 L 215.30,345.29 L 239.78,337.46 L 269.40,328.94 L 298.79,321.32 L 319.13,315.54 L 345.42,307.30 L 351.44,306.04 L 357.42,305.90 L 363.76,306.88 L 369.93,308.28 L 381.03,311.79 L 391.25,315.99 L 399.82,320.34 L 408.69,325.99 L 425.28,338.74 L 448.00,356.13 L 454.31,360.41 L 458.81,363.01 L 462.92,365.24 L 465.83,366.67 L 467.41,366.79 L 469.50,366.07 L 474.62,362.32 L 478.31,359.79 L 481.32,359.08 L 484.15,359.52 L 487.48,361.34 L 492.96,365.42 L 499.12,369.05 L 506.00,371.43 L 514.40,372.03 L 522.23,371.67 L 530.51,370.27 L 538.78,367.62 L 545.81,364.85 L 554.63,359.94 L 562.55,353.89 L 570.67,346.45 L 626.53,290.44" 
        fill="none" 
        stroke="#00bfff" 
        stroke-width="8" 
        stroke-linecap="round" 
        stroke-linejoin="round"
        filter="url(#glow-strong)"
        opacity="0.9"/>
</svg>