<svg xmlns="http://www.w3.org/2000/svg" viewBox="0 0 800 600" style="background: transparent;">
  <defs>
    <filter id="glow">
      <feGaussianBlur stdDeviation="4" result="coloredBlur"/>
      <feMerge>
        <feMergeNode in="coloredBlur"/>
        <feMergeNode in="SourceGraphic"/>
      </feMerge>
    </filter>
    <filter id="glow-strong">
      <feGaussianBlur stdDeviation="8" result="coloredBlur"/>
      <feMerge>
        <feMergeNode in="coloredBlur"/>
        <feMergeNode in="coloredBlur"/>
        <feMergeNode in="SourceGraphic"/>
      </feMerge>
    </filter>
  </defs>
  <path d="M 395.85,350.56 L 483.29,301.47 L 484.78,297.85 L 484.14,294.48 L 481.54,290.01 L 462.92,277.56 L 457.12,271.94 L 455.20,261.80 L 457.12,251.06 L 455.29,237.81 L 450.82,229.33 L 433.94,217.18 L 414.72,211.22 L 402.24,208.70 L 383.83,208.32 L 369.38,210.66 L 352.47,217.48 L 266.64,263.76 L 254.33,270.45 L 248.02,271.43 L 240.78,271.94 L 233.53,271.09 L 224.33,268.49 L 216.57,264.57 L 208.65,258.81 L 200.38,253.87 L 189.56,252.25 L 179.80,253.06 L 169.32,257.62 L 159.47,265.55 L 150.52,273.52 L 140.47,277.99 L 130.11,279.87 L 117.63,277.91 L 106.16,274.67 L 96.53,270.58 L 89.42,264.65 L 82.64,255.11 L 80.00,244.97 L 80.30,236.49 L 82.39,230.78 L 85.84,226.86 L 92.87,223.40 L 101.35,223.40 L 111.83,225.49 L 123.55,225.45 L 147.71,220.85 L 191.94,212.79 L 237.67,213.99 L 307.47,216.59 L 326.77,211.09 L 350.63,203.42 L 369.85,197.32 L 395.67,189.95 L 422.52,185.90 L 449.49,185.61 L 477.83,189.78 L 503.70,197.96 L 562.80,217.35 L 597.11,229.11 L 613.64,235.72 L 655.91,255.92 L 678.67,269.00 L 683.23,274.54 L 681.73,279.14 L 677.60,282.72 L 667.16,288.39 L 659.87,293.29 L 655.91,300.45 L 655.06,307.90 L 657.40,316.98 L 663.03,322.05 L 669.63,324.44 L 689.19,323.37 L 698.95,324.57 L 703.25,327.08 L 709.82,332.83 L 720.00,349.20 L 719.32,352.78 L 714.38,354.57 L 709.90,357.55 L 709.73,363.64 L 717.83,387.12 L 717.19,391.13 L 713.52,393.81 L 693.15,395.47 L 399.00,404.85 L 164.46,414.39 L 157.60,412.77 L 156.15,407.92 L 158.49,401.87 L 166.63,395.39 L 179.29,386.74 L 192.88,380.18 L 203.96,377.66 L 213.72,378.39 L 225.65,382.26 L 253.48,394.02 L 269.07,397.77 L 288.25,399.27 L 307.17,396.88 L 325.02,390.19 L 395.85,350.56" 
        fill="none" 
        stroke="#1a3a52" 
        stroke-width="16" 
        stroke-linecap="round" 
        stroke-linejoin="round"/>
  <path d="M 395.85,350.56 L 483.29,301.47 L 484.78,297.85 L 484.14,294.48 L 481.54,290.01 L 462.92,277.56 L 457.12,271.94 L 455.20,261.80 L 457.12,251.06 L 455.29,237.81 L 450.82,229.33 L 433.94,217.18 L 414.72,211.22 L 402.24,208.70 L 383.83,208.32 L 369.38,210.66 L 352.47,217.48 L 266.64,263.76 L 254.33,270.45 L 248.02,271.43 L 240.78,271.94 L 233.53,271.09 L 224.33,268.49 L 216.57,264.57 L 208.65,258.81 L 200.38,253.87 L 189.56,252.25 L 179.80,253.06 L 169.32,257.62 L 159.47,265.55 L 150.52,273.52 L 140.47,277.99 L 130.11,279.87 L 117.63,277.91 L 106.16,274.67 L 96.53,270.58 L 89.42,264.65 L 82.64,255.11 L 80.00,244.97 L 80.30,236.49 L 82.39,230.78 L 85.84,226.86 L 92.87,223.40 L 101.35,223.40 L 111.83,225.49 L 123.55,225.45 L 147.71,220.85 L 191.94,212.79 L 237.67,213.99 L 307.47,216.59 L 326.77,211.09 L 350.63,203.42 L 369.85,197.32 L 395.67,189.95 L 422.52,185.90 L 449.49,185.61 L 477.83,189.78 L 503.70,197.96 L 562.80,217.35 L 597.11,229.11 L 613.64,235.72 L 655.91,255.92 L 678.67,269.00 L 683.23,274.54 L 681.73,279.14 L 677.60,282.72 L 667.16,288.39 L 659.87,293.29 L 655.91,300.45 L 655.06,307.90 L 657.40,316.98 L 663.03,322.05 L 669.63,324.44 L 689.19,323.37 L 698.95,324.57 L 703.25,327.08 L 709.82,332.83 L 720.00,349.20 L 719.32,352.78 L 714.38,354.57 L 709.90,357.55 L 709.73,363.64 L 717.83,387.12 L 717.19,391.13 L 713.52,393.81 L 693.15,395.47 L 399.00,404.85 L 164.46,414.39 L 157.60,412.77 L 156.15,407.92 L 158.49,401.87 L 166.63,395.39 L 179.29,386.74 L 192.88,380.18 L 203.96,377.66 L 213.72,378.39 L 225.65,382.26 L 253.48,394.02 L 269.07,397.77 L 288.25,399.27 L 307.17,396.88 L 325.02,390.19 L 395.85,350.56" 
        fill="none" 
        stroke="#00bfff" 
        stroke-width="8" 
        stroke-linecap="round" 
        stroke-linejoin="round"
        filter="url(#glow-strong)"
        opacity="0.9"/>
</svg>