<svg xmlns="http://www.w3.org/2000/svg" viewBox="0 0 800 600" style="background: transparent;">
  <defs>
    <filter id="glow">
      <feGaussianBlur stdDeviation="4" result="coloredBlur"/>
      <feMerge>
        <feMergeNode in="coloredBlur"/>
        <feMergeNode in="SourceGraphic"/>
      </feMerge>
    </filter>
    <filter id="glow-strong">
      <feGaussianBlur stdDeviation="8" result="coloredBlur"/>
      <feMerge>
        <feMergeNode in="coloredBlur"/>
        <feMergeNode in="coloredBlur"/>
        <feMergeNode in="SourceGraphic"/>
      </feMerge>
    </filter>
  </defs>
  <path d="M 196.88,509.33 L 355.68,488.53 L 407.19,482.16 L 461.44,477.55 L 487.59,474.48 L 555.06,465.50 L 672.63,449.03 L 696.88,444.42 L 701.02,442.89 L 703.20,441.12 L 704.32,438.28 L 704.60,435.68 L 700.18,408.23 L 700.74,405.81 L 702.13,403.62 L 714.51,397.29 L 718.09,395.52 L 720.00,392.68 L 720.00,390.03 L 717.53,372.91 L 713.67,357.56 L 707.62,342.67 L 700.74,329.27 L 646.76,242.86 L 582.04,147.01 L 577.90,140.45 L 577.34,136.50 L 578.18,133.20 L 580.14,130.78 L 599.40,119.61 L 601.31,117.84 L 601.58,115.00 L 600.24,112.58 L 596.93,109.74 L 560.83,84.06 L 557.24,82.53 L 554.22,82.11 L 551.47,82.99 L 544.87,86.95 L 543.75,89.55 L 543.75,94.81 L 560.27,216.34 L 560.03,220.06 L 558.36,223.55 L 555.89,226.44 L 552.03,229.04 L 532.77,240.26 L 525.88,246.17 L 521.74,250.12 L 517.60,257.57 L 513.18,268.55 L 508.81,275.11 L 503.83,279.71 L 498.34,283.02 L 490.89,286.09 L 431.38,294.65 L 424.78,296.60 L 420.68,299.91 L 418.73,302.09 L 417.10,305.16 L 409.38,327.73 L 406.91,332.15 L 403.05,336.29 L 393.42,341.78 L 349.35,364.16 L 336.65,369.19 L 318.23,373.38 L 170.59,393.57 L 167.57,394.64 L 165.94,396.41 L 164.54,399.25 L 164.26,402.97 L 161.80,438.75 L 158.77,463.50 L 157.66,466.34 L 155.47,468.34 L 152.44,469.64 L 148.58,469.22 L 144.44,465.69 L 139.18,458.24 L 136.16,456.06 L 132.58,454.75 L 128.48,454.94 L 123.78,456.94 L 118.29,459.36 L 113.04,460.90 L 88.00,463.50 L 83.86,464.80 L 81.91,466.34 L 80.28,469.22 L 80.00,472.06 L 81.63,478.86 L 85.21,487.84 L 89.91,495.33 L 96.80,504.31 L 104.80,510.45 L 114.99,515.29 L 124.34,517.66 L 133.41,517.89 L 146.63,516.36 L 196.88,509.33" 
        fill="none" 
        stroke="#1a3a52" 
        stroke-width="16" 
        stroke-linecap="round" 
        stroke-linejoin="round"/>
  <path d="M 196.88,509.33 L 355.68,488.53 L 407.19,482.16 L 461.44,477.55 L 487.59,474.48 L 555.06,465.50 L 672.63,449.03 L 696.88,444.42 L 701.02,442.89 L 703.20,441.12 L 704.32,438.28 L 704.60,435.68 L 700.18,408.23 L 700.74,405.81 L 702.13,403.62 L 714.51,397.29 L 718.09,395.52 L 720.00,392.68 L 720.00,390.03 L 717.53,372.91 L 713.67,357.56 L 707.62,342.67 L 700.74,329.27 L 646.76,242.86 L 582.04,147.01 L 577.90,140.45 L 577.34,136.50 L 578.18,133.20 L 580.14,130.78 L 599.40,119.61 L 601.31,117.84 L 601.58,115.00 L 600.24,112.58 L 596.93,109.74 L 560.83,84.06 L 557.24,82.53 L 554.22,82.11 L 551.47,82.99 L 544.87,86.95 L 543.75,89.55 L 543.75,94.81 L 560.27,216.34 L 560.03,220.06 L 558.36,223.55 L 555.89,226.44 L 552.03,229.04 L 532.77,240.26 L 525.88,246.17 L 521.74,250.12 L 517.60,257.57 L 513.18,268.55 L 508.81,275.11 L 503.83,279.71 L 498.34,283.02 L 490.89,286.09 L 431.38,294.65 L 424.78,296.60 L 420.68,299.91 L 418.73,302.09 L 417.10,305.16 L 409.38,327.73 L 406.91,332.15 L 403.05,336.29 L 393.42,341.78 L 349.35,364.16 L 336.65,369.19 L 318.23,373.38 L 170.59,393.57 L 167.57,394.64 L 165.94,396.41 L 164.54,399.25 L 164.26,402.97 L 161.80,438.75 L 158.77,463.50 L 157.66,466.34 L 155.47,468.34 L 152.44,469.64 L 148.58,469.22 L 144.44,465.69 L 139.18,458.24 L 136.16,456.06 L 132.58,454.75 L 128.48,454.94 L 123.78,456.94 L 118.29,459.36 L 113.04,460.90 L 88.00,463.50 L 83.86,464.80 L 81.91,466.34 L 80.28,469.22 L 80.00,472.06 L 81.63,478.86 L 85.21,487.84 L 89.91,495.33 L 96.80,504.31 L 104.80,510.45 L 114.99,515.29 L 124.34,517.66 L 133.41,517.89 L 146.63,516.36 L 196.88,509.33" 
        fill="none" 
        stroke="#00bfff" 
        stroke-width="8" 
        stroke-linecap="round" 
        stroke-linejoin="round"
        filter="url(#glow-strong)"
        opacity="0.9"/>
</svg>