<svg xmlns="http://www.w3.org/2000/svg" viewBox="0 0 800 600" style="background: transparent;">
  <defs>
    <filter id="glow">
      <feGaussianBlur stdDeviation="4" result="coloredBlur"/>
      <feMerge>
        <feMergeNode in="coloredBlur"/>
        <feMergeNode in="SourceGraphic"/>
      </feMerge>
    </filter>
    <filter id="glow-strong">
      <feGaussianBlur stdDeviation="8" result="coloredBlur"/>
      <feMerge>
        <feMergeNode in="coloredBlur"/>
        <feMergeNode in="coloredBlur"/>
        <feMergeNode in="SourceGraphic"/>
      </feMerge>
    </filter>
  </defs>
  <path d="M 548.32,113.85 L 565.02,129.03 L 568.57,132.22 L 571.10,135.68 L 571.95,139.80 L 569.79,143.51 L 566.28,145.88 L 559.95,147.81 L 553.93,148.60 L 548.13,148.33 L 542.70,147.02 L 530.82,141.24 L 519.84,132.44 L 515.61,130.18 L 506.37,128.52 L 501.39,128.60 L 492.36,131.05 L 487.38,133.29 L 482.74,136.48 L 475.06,144.87 L 471.95,151.98 L 469.83,362.71 L 471.43,365.90 L 474.57,367.51 L 528.37,366.69 L 544.50,366.77 L 552.92,368.35 L 556.33,370.72 L 565.84,378.22 L 570.12,383.10 L 573.39,388.36 L 575.76,392.96 L 577.18,398.96 L 578.16,406.10 L 577.89,410.30 L 574.94,411.80 L 567.15,412.51 L 564.42,413.90 L 562.08,416.81 L 561.15,421.36 L 561.59,424.69 L 569.14,435.24 L 570.45,438.04 L 573.61,442.89 L 572.46,447.99 L 566.33,451.26 L 554.94,452.30 L 469.63,454.04 L 438.13,457.75 L 427.72,461.81 L 416.22,471.37 L 406.35,487.32 L 391.25,515.99 L 381.55,524.25 L 371.49,529.83 L 361.27,532.89 L 345.27,537.06 L 327.12,540.00 L 324.64,539.51 L 322.27,538.04 L 320.42,533.02 L 318.54,529.59 L 299.70,499.85 L 287.99,482.17 L 281.88,473.20 L 275.61,464.56 L 264.79,449.38 L 253.67,428.97 L 247.79,413.54 L 241.33,395.80 L 236.99,383.10 L 233.75,370.45 L 231.16,357.64 L 228.41,338.86 L 227.73,327.91 L 227.02,314.85 L 227.32,279.50 L 227.48,259.31 L 227.56,243.99 L 223.94,163.95 L 222.85,122.88 L 222.82,102.38 L 221.84,77.69 L 223.56,75.70 L 225.90,75.04 L 231.51,75.13 L 235.66,73.85 L 244.98,66.30 L 253.13,62.53 L 263.97,60.82 L 311.21,60.00 L 372.99,60.60 L 423.82,60.35 L 448.65,60.63 L 468.98,62.92 L 490.24,66.19 L 495.77,68.23 L 500.24,70.49 L 503.81,73.22 L 548.32,113.85" 
        fill="none" 
        stroke="#1a3a52" 
        stroke-width="16" 
        stroke-linecap="round" 
        stroke-linejoin="round"/>
  <path d="M 548.32,113.85 L 565.02,129.03 L 568.57,132.22 L 571.10,135.68 L 571.95,139.80 L 569.79,143.51 L 566.28,145.88 L 559.95,147.81 L 553.93,148.60 L 548.13,148.33 L 542.70,147.02 L 530.82,141.24 L 519.84,132.44 L 515.61,130.18 L 506.37,128.52 L 501.39,128.60 L 492.36,131.05 L 487.38,133.29 L 482.74,136.48 L 475.06,144.87 L 471.95,151.98 L 469.83,362.71 L 471.43,365.90 L 474.57,367.51 L 528.37,366.69 L 544.50,366.77 L 552.92,368.35 L 556.33,370.72 L 565.84,378.22 L 570.12,383.10 L 573.39,388.36 L 575.76,392.96 L 577.18,398.96 L 578.16,406.10 L 577.89,410.30 L 574.94,411.80 L 567.15,412.51 L 564.42,413.90 L 562.08,416.81 L 561.15,421.36 L 561.59,424.69 L 569.14,435.24 L 570.45,438.04 L 573.61,442.89 L 572.46,447.99 L 566.33,451.26 L 554.94,452.30 L 469.63,454.04 L 438.13,457.75 L 427.72,461.81 L 416.22,471.37 L 406.35,487.32 L 391.25,515.99 L 381.55,524.25 L 371.49,529.83 L 361.27,532.89 L 345.27,537.06 L 327.12,540.00 L 324.64,539.51 L 322.27,538.04 L 320.42,533.02 L 318.54,529.59 L 299.70,499.85 L 287.99,482.17 L 281.88,473.20 L 275.61,464.56 L 264.79,449.38 L 253.67,428.97 L 247.79,413.54 L 241.33,395.80 L 236.99,383.10 L 233.75,370.45 L 231.16,357.64 L 228.41,338.86 L 227.73,327.91 L 227.02,314.85 L 227.32,279.50 L 227.48,259.31 L 227.56,243.99 L 223.94,163.95 L 222.85,122.88 L 222.82,102.38 L 221.84,77.69 L 223.56,75.70 L 225.90,75.04 L 231.51,75.13 L 235.66,73.85 L 244.98,66.30 L 253.13,62.53 L 263.97,60.82 L 311.21,60.00 L 372.99,60.60 L 423.82,60.35 L 448.65,60.63 L 468.98,62.92 L 490.24,66.19 L 495.77,68.23 L 500.24,70.49 L 503.81,73.22 L 548.32,113.85" 
        fill="none" 
        stroke="#00bfff" 
        stroke-width="8" 
        stroke-linecap="round" 
        stroke-linejoin="round"
        filter="url(#glow-strong)"
        opacity="0.9"/>
</svg>