<svg xmlns="http://www.w3.org/2000/svg" viewBox="0 0 800 600" style="background: transparent;">
  <defs>
    <filter id="glow">
      <feGaussianBlur stdDeviation="4" result="coloredBlur"/>
      <feMerge>
        <feMergeNode in="coloredBlur"/>
        <feMergeNode in="SourceGraphic"/>
      </feMerge>
    </filter>
    <filter id="glow-strong">
      <feGaussianBlur stdDeviation="8" result="coloredBlur"/>
      <feMerge>
        <feMergeNode in="coloredBlur"/>
        <feMergeNode in="coloredBlur"/>
        <feMergeNode in="SourceGraphic"/>
      </feMerge>
    </filter>
  </defs>
  <path d="M 476.86,446.22 L 475.77,451.15 L 477.30,455.59 L 481.25,461.68 L 484.98,465.96 L 496.61,476.60 L 555.68,534.57 L 559.79,538.74 L 565.88,540.00 L 573.28,538.46 L 578.44,535.39 L 582.17,530.57 L 582.93,525.14 L 583.10,520.64 L 583.70,516.97 L 586.77,512.58 L 590.34,509.23 L 596.97,502.49 L 601.47,496.51 L 603.23,492.89 L 605.48,490.75 L 609.04,490.04 L 613.15,490.91 L 616.22,493.22 L 617.16,496.51 L 615.13,499.31 L 609.92,502.05 L 594.51,516.20 L 592.31,519.60 L 592.26,522.89 L 593.46,525.41 L 595.11,527.77 L 602.35,530.46 L 613.54,532.54 L 619.63,534.19 L 625.88,536.00 L 634.54,538.19 L 643.98,538.68 L 648.97,536.87 L 650.83,531.28 L 649.08,498.59 L 642.11,464.97 L 634.87,443.58 L 626.81,428.34 L 612.99,410.90 L 597.08,396.14 L 574.05,377.99 L 541.09,363.40 L 521.45,356.44 L 483.61,343.66 L 458.16,337.29 L 420.59,330.88 L 396.41,328.14 L 383.57,326.38 L 381.38,323.69 L 381.22,321.33 L 380.45,318.59 L 378.80,315.90 L 373.37,314.53 L 365.69,313.60 L 357.19,317.11 L 352.53,317.33 L 284.85,310.91 L 251.23,307.40 L 220.30,303.89 L 211.75,302.96 L 206.04,302.25 L 201.93,299.18 L 195.46,289.96 L 189.97,281.02 L 185.59,272.08 L 183.67,265.72 L 181.64,254.64 L 181.47,235.67 L 181.75,230.95 L 183.67,227.71 L 187.50,224.59 L 196.01,220.09 L 201.71,216.31 L 204.18,212.25 L 205.16,206.38 L 214.82,166.01 L 217.29,158.94 L 218.05,156.69 L 217.83,153.67 L 215.37,151.26 L 209.94,148.52 L 204.51,146.60 L 203.24,143.86 L 204.29,138.10 L 210.48,124.99 L 216.13,115.12 L 221.89,107.33 L 231.76,97.13 L 244.16,88.08 L 253.26,84.30 L 263.46,80.84 L 268.56,79.20 L 271.14,77.11 L 274.10,70.69 L 272.68,67.29 L 268.07,65.32 L 247.61,61.43 L 236.21,60.11 L 228.69,60.00 L 222.00,60.71 L 217.78,63.02 L 215.20,64.94 L 215.09,69.43 L 214.10,73.05 L 212.13,77.50 L 200.61,87.75 L 192.17,97.57 L 185.59,104.92 L 178.62,118.85 L 163.21,157.62 L 158.99,170.13 L 156.02,183.51 L 152.18,203.03 L 149.17,228.43 L 149.17,244.99 L 150.16,257.66 L 152.07,270.82 L 155.48,279.98 L 159.31,288.21 L 161.18,293.25 L 162.11,297.70 L 161.67,304.44 L 161.51,308.61 L 163.37,311.08 L 168.14,312.72 L 179.77,314.75 L 190.14,315.08 L 204.34,316.34 L 224.14,318.15 L 241.69,320.40 L 286.33,329.89 L 311.29,334.83 L 334.16,337.51 L 349.84,338.45 L 362.07,341.63 L 397.45,353.75 L 412.97,358.35 L 435.62,362.03 L 454.54,363.95 L 472.59,366.14 L 482.73,368.72 L 495.07,374.31 L 505.77,382.38 L 511.80,389.18 L 514.49,396.31 L 514.05,403.77 L 512.29,410.79 L 508.46,418.52 L 503.35,425.87 L 495.35,430.37 L 487.67,435.58 L 483.94,437.93 L 480.48,440.46 L 476.86,446.22" 
        fill="none" 
        stroke="#1a3a52" 
        stroke-width="16" 
        stroke-linecap="round" 
        stroke-linejoin="round"/>
  <path d="M 476.86,446.22 L 475.77,451.15 L 477.30,455.59 L 481.25,461.68 L 484.98,465.96 L 496.61,476.60 L 555.68,534.57 L 559.79,538.74 L 565.88,540.00 L 573.28,538.46 L 578.44,535.39 L 582.17,530.57 L 582.93,525.14 L 583.10,520.64 L 583.70,516.97 L 586.77,512.58 L 590.34,509.23 L 596.97,502.49 L 601.47,496.51 L 603.23,492.89 L 605.48,490.75 L 609.04,490.04 L 613.15,490.91 L 616.22,493.22 L 617.16,496.51 L 615.13,499.31 L 609.92,502.05 L 594.51,516.20 L 592.31,519.60 L 592.26,522.89 L 593.46,525.41 L 595.11,527.77 L 602.35,530.46 L 613.54,532.54 L 619.63,534.19 L 625.88,536.00 L 634.54,538.19 L 643.98,538.68 L 648.97,536.87 L 650.83,531.28 L 649.08,498.59 L 642.11,464.97 L 634.87,443.58 L 626.81,428.34 L 612.99,410.90 L 597.08,396.14 L 574.05,377.99 L 541.09,363.40 L 521.45,356.44 L 483.61,343.66 L 458.16,337.29 L 420.59,330.88 L 396.41,328.14 L 383.57,326.38 L 381.38,323.69 L 381.22,321.33 L 380.45,318.59 L 378.80,315.90 L 373.37,314.53 L 365.69,313.60 L 357.19,317.11 L 352.53,317.33 L 284.85,310.91 L 251.23,307.40 L 220.30,303.89 L 211.75,302.96 L 206.04,302.25 L 201.93,299.18 L 195.46,289.96 L 189.97,281.02 L 185.59,272.08 L 183.67,265.72 L 181.64,254.64 L 181.47,235.67 L 181.75,230.95 L 183.67,227.71 L 187.50,224.59 L 196.01,220.09 L 201.71,216.31 L 204.18,212.25 L 205.16,206.38 L 214.82,166.01 L 217.29,158.94 L 218.05,156.69 L 217.83,153.67 L 215.37,151.26 L 209.94,148.52 L 204.51,146.60 L 203.24,143.86 L 204.29,138.10 L 210.48,124.99 L 216.13,115.12 L 221.89,107.33 L 231.76,97.13 L 244.16,88.08 L 253.26,84.30 L 263.46,80.84 L 268.56,79.20 L 271.14,77.11 L 274.10,70.69 L 272.68,67.29 L 268.07,65.32 L 247.61,61.43 L 236.21,60.11 L 228.69,60.00 L 222.00,60.71 L 217.78,63.02 L 215.20,64.94 L 215.09,69.43 L 214.10,73.05 L 212.13,77.50 L 200.61,87.75 L 192.17,97.57 L 185.59,104.92 L 178.62,118.85 L 163.21,157.62 L 158.99,170.13 L 156.02,183.51 L 152.18,203.03 L 149.17,228.43 L 149.17,244.99 L 150.16,257.66 L 152.07,270.82 L 155.48,279.98 L 159.31,288.21 L 161.18,293.25 L 162.11,297.70 L 161.67,304.44 L 161.51,308.61 L 163.37,311.08 L 168.14,312.72 L 179.77,314.75 L 190.14,315.08 L 204.34,316.34 L 224.14,318.15 L 241.69,320.40 L 286.33,329.89 L 311.29,334.83 L 334.16,337.51 L 349.84,338.45 L 362.07,341.63 L 397.45,353.75 L 412.97,358.35 L 435.62,362.03 L 454.54,363.95 L 472.59,366.14 L 482.73,368.72 L 495.07,374.31 L 505.77,382.38 L 511.80,389.18 L 514.49,396.31 L 514.05,403.77 L 512.29,410.79 L 508.46,418.52 L 503.35,425.87 L 495.35,430.37 L 487.67,435.58 L 483.94,437.93 L 480.48,440.46 L 476.86,446.22" 
        fill="none" 
        stroke="#00bfff" 
        stroke-width="8" 
        stroke-linecap="round" 
        stroke-linejoin="round"
        filter="url(#glow-strong)"
        opacity="0.9"/>
</svg>