<svg xmlns="http://www.w3.org/2000/svg" viewBox="0 0 800 600" style="background: transparent;">
  <defs>
    <filter id="glow">
      <feGaussianBlur stdDeviation="4" result="coloredBlur"/>
      <feMerge>
        <feMergeNode in="coloredBlur"/>
        <feMergeNode in="SourceGraphic"/>
      </feMerge>
    </filter>
    <filter id="glow-strong">
      <feGaussianBlur stdDeviation="8" result="coloredBlur"/>
      <feMerge>
        <feMergeNode in="coloredBlur"/>
        <feMergeNode in="coloredBlur"/>
        <feMergeNode in="SourceGraphic"/>
      </feMerge>
    </filter>
  </defs>
  <path d="M 158.17,314.35 L 229.91,420.19 L 257.17,459.03 L 263.34,463.32 L 271.70,465.73 L 280.82,466.45 L 289.27,465.37 L 297.22,462.07 L 302.76,457.91 L 305.71,452.73 L 305.94,446.96 L 298.03,435.74 L 275.28,401.95 L 267.95,386.22 L 265.00,369.81 L 266.56,354.44 L 264.19,348.18 L 258.60,343.98 L 247.43,338.44 L 235.41,335.53 L 202.20,327.62 L 193.66,323.69 L 191.34,317.88 L 191.02,312.65 L 194.47,307.33 L 200.90,303.53 L 208.95,301.52 L 221.28,301.70 L 282.11,313.54 L 310.36,316.76 L 334.72,317.25 L 356.27,316.27 L 376.65,314.17 L 391.17,311.44 L 414.95,308.36 L 436.90,307.20 L 452.45,309.16 L 471.18,312.16 L 493.70,319.09 L 520.16,329.63 L 538.09,334.82 L 554.04,337.63 L 575.10,339.06 L 591.68,338.84 L 660.82,336.25 L 676.78,334.01 L 691.57,329.50 L 702.08,324.00 L 708.83,318.15 L 715.40,311.44 L 718.88,303.71 L 720.00,295.53 L 718.75,287.53 L 714.90,279.40 L 706.59,270.55 L 674.81,244.09 L 663.10,232.33 L 636.55,197.33 L 623.81,194.61 L 608.08,193.49 L 593.02,193.94 L 575.27,195.77 L 556.86,199.61 L 537.15,205.38 L 517.62,213.87 L 505.55,222.05 L 503.36,227.06 L 505.28,232.33 L 512.79,238.95 L 523.52,243.15 L 539.29,246.68 L 566.25,249.27 L 592.21,253.25 L 615.90,258.79 L 629.00,264.42 L 633.96,271.17 L 634.63,278.55 L 630.38,285.88 L 619.43,292.54 L 609.60,294.64 L 558.51,298.44 L 507.07,298.35 L 452.41,294.32 L 406.19,287.22 L 377.59,281.72 L 346.03,274.57 L 315.86,266.75 L 291.28,257.85 L 282.25,255.48 L 275.81,256.24 L 269.78,261.34 L 263.34,268.76 L 254.49,272.11 L 243.14,272.38 L 232.06,269.20 L 226.16,264.33 L 223.43,259.10 L 226.16,248.47 L 250.92,160.24 L 251.45,154.34 L 248.73,148.30 L 244.35,143.21 L 240.10,139.94 L 229.60,135.61 L 218.38,134.04 L 170.82,133.55 L 161.12,133.87 L 147.00,135.21 L 132.38,138.11 L 120.36,141.46 L 104.36,149.15 L 93.95,157.64 L 86.84,164.93 L 81.65,174.76 L 80.00,183.39 L 81.47,197.47 L 85.86,207.48 L 154.46,309.07 L 158.17,314.35" 
        fill="none" 
        stroke="#1a3a52" 
        stroke-width="16" 
        stroke-linecap="round" 
        stroke-linejoin="round"/>
  <path d="M 158.17,314.35 L 229.91,420.19 L 257.17,459.03 L 263.34,463.32 L 271.70,465.73 L 280.82,466.45 L 289.27,465.37 L 297.22,462.07 L 302.76,457.91 L 305.71,452.73 L 305.94,446.96 L 298.03,435.74 L 275.28,401.95 L 267.95,386.22 L 265.00,369.81 L 266.56,354.44 L 264.19,348.18 L 258.60,343.98 L 247.43,338.44 L 235.41,335.53 L 202.20,327.62 L 193.66,323.69 L 191.34,317.88 L 191.02,312.65 L 194.47,307.33 L 200.90,303.53 L 208.95,301.52 L 221.28,301.70 L 282.11,313.54 L 310.36,316.76 L 334.72,317.25 L 356.27,316.27 L 376.65,314.17 L 391.17,311.44 L 414.95,308.36 L 436.90,307.20 L 452.45,309.16 L 471.18,312.16 L 493.70,319.09 L 520.16,329.63 L 538.09,334.82 L 554.04,337.63 L 575.10,339.06 L 591.68,338.84 L 660.82,336.25 L 676.78,334.01 L 691.57,329.50 L 702.08,324.00 L 708.83,318.15 L 715.40,311.44 L 718.88,303.71 L 720.00,295.53 L 718.75,287.53 L 714.90,279.40 L 706.59,270.55 L 674.81,244.09 L 663.10,232.33 L 636.55,197.33 L 623.81,194.61 L 608.08,193.49 L 593.02,193.94 L 575.27,195.77 L 556.86,199.61 L 537.15,205.38 L 517.62,213.87 L 505.55,222.05 L 503.36,227.06 L 505.28,232.33 L 512.79,238.95 L 523.52,243.15 L 539.29,246.68 L 566.25,249.27 L 592.21,253.25 L 615.90,258.79 L 629.00,264.42 L 633.96,271.17 L 634.63,278.55 L 630.38,285.88 L 619.43,292.54 L 609.60,294.64 L 558.51,298.44 L 507.07,298.35 L 452.41,294.32 L 406.19,287.22 L 377.59,281.72 L 346.03,274.57 L 315.86,266.75 L 291.28,257.85 L 282.25,255.48 L 275.81,256.24 L 269.78,261.34 L 263.34,268.76 L 254.49,272.11 L 243.14,272.38 L 232.06,269.20 L 226.16,264.33 L 223.43,259.10 L 226.16,248.47 L 250.92,160.24 L 251.45,154.34 L 248.73,148.30 L 244.35,143.21 L 240.10,139.94 L 229.60,135.61 L 218.38,134.04 L 170.82,133.55 L 161.12,133.87 L 147.00,135.21 L 132.38,138.11 L 120.36,141.46 L 104.36,149.15 L 93.95,157.64 L 86.84,164.93 L 81.65,174.76 L 80.00,183.39 L 81.47,197.47 L 85.86,207.48 L 154.46,309.07 L 158.17,314.35" 
        fill="none" 
        stroke="#00bfff" 
        stroke-width="8" 
        stroke-linecap="round" 
        stroke-linejoin="round"
        filter="url(#glow-strong)"
        opacity="0.9"/>
</svg>