<svg xmlns="http://www.w3.org/2000/svg" viewBox="0 0 800 600" style="background: transparent;">
  <defs>
    <filter id="glow">
      <feGaussianBlur stdDeviation="4" result="coloredBlur"/>
      <feMerge>
        <feMergeNode in="coloredBlur"/>
        <feMergeNode in="SourceGraphic"/>
      </feMerge>
    </filter>
    <filter id="glow-strong">
      <feGaussianBlur stdDeviation="8" result="coloredBlur"/>
      <feMerge>
        <feMergeNode in="coloredBlur"/>
        <feMergeNode in="coloredBlur"/>
        <feMergeNode in="SourceGraphic"/>
      </feMerge>
    </filter>
  </defs>
  <path d="M 253.83,249.47 L 198.10,341.57 L 176.23,377.31 L 174.78,384.00 L 175.72,390.94 L 178.51,396.33 L 182.88,400.27 L 189.60,403.84 L 197.30,404.93 L 204.57,403.73 L 260.19,373.27 L 265.51,371.93 L 272.52,371.71 L 280.58,373.84 L 287.08,379.34 L 290.81,385.34 L 291.71,391.41 L 290.45,435.18 L 291.24,441.14 L 293.23,446.28 L 295.90,451.19 L 299.73,455.24 L 379.07,534.61 L 383.45,537.83 L 390.20,539.53 L 396.71,540.00 L 403.33,538.45 L 408.49,535.70 L 432.06,515.39 L 434.70,511.08 L 435.89,505.19 L 435.64,500.06 L 434.05,495.04 L 430.61,490.52 L 379.07,439.41 L 376.83,435.69 L 376.69,431.64 L 377.88,428.06 L 380.41,425.42 L 384.13,423.29 L 389.27,422.67 L 392.84,423.61 L 397.51,425.53 L 487.54,458.06 L 493.43,458.64 L 500.70,457.70 L 506.81,455.20 L 511.58,450.87 L 514.51,445.37 L 515.66,439.95 L 515.55,435.18 L 513.82,430.63 L 510.13,425.35 L 507.06,422.75 L 500.05,417.58 L 492.24,409.48 L 485.73,401.35 L 480.31,392.67 L 475.94,382.52 L 473.45,375.58 L 470.77,363.40 L 468.53,358.19 L 464.70,353.78 L 460.58,351.00 L 455.05,348.76 L 403.87,337.52 L 399.39,335.13 L 395.95,332.39 L 393.96,327.83 L 393.17,323.42 L 394.07,316.77 L 399.64,310.19 L 409.18,301.48 L 423.89,291.36 L 439.25,283.48 L 454.87,278.46 L 470.48,275.46 L 485.73,274.27 L 502.40,275.71 L 578.88,283.37 L 585.89,282.04 L 593.99,278.57 L 600.20,274.27 L 606.02,267.11 L 623.77,237.33 L 625.22,232.19 L 625.22,227.53 L 624.42,222.65 L 620.73,216.43 L 593.19,176.31 L 589.72,173.31 L 584.59,171.18 L 579.28,169.73 L 572.12,169.99 L 484.18,186.00 L 477.93,186.00 L 471.71,184.34 L 466.43,181.08 L 462.71,176.93 L 401.48,69.43 L 396.57,64.30 L 391.00,61.19 L 382.94,60.00 L 376.83,60.61 L 370.87,62.89 L 364.80,67.66 L 253.83,249.47" 
        fill="none" 
        stroke="#1a3a52" 
        stroke-width="16" 
        stroke-linecap="round" 
        stroke-linejoin="round"/>
  <path d="M 253.83,249.47 L 198.10,341.57 L 176.23,377.31 L 174.78,384.00 L 175.72,390.94 L 178.51,396.33 L 182.88,400.27 L 189.60,403.84 L 197.30,404.93 L 204.57,403.73 L 260.19,373.27 L 265.51,371.93 L 272.52,371.71 L 280.58,373.84 L 287.08,379.34 L 290.81,385.34 L 291.71,391.41 L 290.45,435.18 L 291.24,441.14 L 293.23,446.28 L 295.90,451.19 L 299.73,455.24 L 379.07,534.61 L 383.45,537.83 L 390.20,539.53 L 396.71,540.00 L 403.33,538.45 L 408.49,535.70 L 432.06,515.39 L 434.70,511.08 L 435.89,505.19 L 435.64,500.06 L 434.05,495.04 L 430.61,490.52 L 379.07,439.41 L 376.83,435.69 L 376.69,431.64 L 377.88,428.06 L 380.41,425.42 L 384.13,423.29 L 389.27,422.67 L 392.84,423.61 L 397.51,425.53 L 487.54,458.06 L 493.43,458.64 L 500.70,457.70 L 506.81,455.20 L 511.58,450.87 L 514.51,445.37 L 515.66,439.95 L 515.55,435.18 L 513.82,430.63 L 510.13,425.35 L 507.06,422.75 L 500.05,417.58 L 492.24,409.48 L 485.73,401.35 L 480.31,392.67 L 475.94,382.52 L 473.45,375.58 L 470.77,363.40 L 468.53,358.19 L 464.70,353.78 L 460.58,351.00 L 455.05,348.76 L 403.87,337.52 L 399.39,335.13 L 395.95,332.39 L 393.96,327.83 L 393.17,323.42 L 394.07,316.77 L 399.64,310.19 L 409.18,301.48 L 423.89,291.36 L 439.25,283.48 L 454.87,278.46 L 470.48,275.46 L 485.73,274.27 L 502.40,275.71 L 578.88,283.37 L 585.89,282.04 L 593.99,278.57 L 600.20,274.27 L 606.02,267.11 L 623.77,237.33 L 625.22,232.19 L 625.22,227.53 L 624.42,222.65 L 620.73,216.43 L 593.19,176.31 L 589.72,173.31 L 584.59,171.18 L 579.28,169.73 L 572.12,169.99 L 484.18,186.00 L 477.93,186.00 L 471.71,184.34 L 466.43,181.08 L 462.71,176.93 L 401.48,69.43 L 396.57,64.30 L 391.00,61.19 L 382.94,60.00 L 376.83,60.61 L 370.87,62.89 L 364.80,67.66 L 253.83,249.47" 
        fill="none" 
        stroke="#00bfff" 
        stroke-width="8" 
        stroke-linecap="round" 
        stroke-linejoin="round"
        filter="url(#glow-strong)"
        opacity="0.9"/>
</svg>