<svg xmlns="http://www.w3.org/2000/svg" viewBox="0 0 800 600" style="background: transparent;">
  <defs>
    <filter id="glow">
      <feGaussianBlur stdDeviation="4" result="coloredBlur"/>
      <feMerge>
        <feMergeNode in="coloredBlur"/>
        <feMergeNode in="SourceGraphic"/>
      </feMerge>
    </filter>
    <filter id="glow-strong">
      <feGaussianBlur stdDeviation="8" result="coloredBlur"/>
      <feMerge>
        <feMergeNode in="coloredBlur"/>
        <feMergeNode in="coloredBlur"/>
        <feMergeNode in="SourceGraphic"/>
      </feMerge>
    </filter>
  </defs>
  <path d="M 426.58,170.40 L 400.19,242.10 L 398.68,243.32 L 397.38,243.47 L 391.35,241.65 L 389.72,242.02 L 388.27,242.70 L 387.15,244.11 L 386.53,246.09 L 387.59,251.64 L 392.03,264.53 L 392.50,266.41 L 392.59,270.13 L 390.85,280.33 L 384.94,312.52 L 384.43,319.05 L 383.19,321.20 L 377.06,323.45 L 374.17,325.14 L 371.91,326.96 L 368.82,331.52 L 367.18,336.07 L 366.90,341.62 L 367.74,345.92 L 369.04,348.42 L 373.26,354.39 L 374.80,357.65 L 375.51,361.04 L 375.07,366.22 L 372.88,374.97 L 370.22,378.84 L 368.53,380.16 L 364.48,382.78 L 362.44,384.19 L 360.93,385.76 L 359.81,389.74 L 360.14,406.55 L 360.76,410.21 L 364.65,414.87 L 367.74,416.86 L 375.01,419.27 L 377.10,420.32 L 379.62,424.08 L 380.98,431.52 L 382.22,437.44 L 385.03,445.87 L 387.13,451.10 L 388.64,459.79 L 389.14,465.66 L 388.87,472.28 L 387.92,498.35 L 385.79,532.05 L 384.95,534.22 L 382.86,536.96 L 380.18,538.66 L 376.07,540.00 L 371.94,539.40 L 369.21,538.08 L 366.42,536.32 L 364.11,532.26 L 362.97,526.70 L 363.24,521.70 L 364.31,517.66 L 370.49,507.60 L 373.81,502.85 L 376.56,495.93 L 377.63,491.57 L 378.40,485.46 L 378.19,480.73 L 377.57,475.22 L 375.51,469.45 L 373.13,464.54 L 369.87,458.67 L 367.21,453.02 L 366.05,446.84 L 366.13,442.61 L 366.13,439.35 L 364.87,436.89 L 362.97,434.78 L 359.98,433.21 L 353.55,431.44 L 349.01,427.88 L 346.90,424.66 L 346.12,421.92 L 345.07,416.48 L 344.80,410.25 L 344.80,406.03 L 345.23,401.29 L 346.04,396.25 L 348.29,389.95 L 354.11,378.34 L 358.04,369.44 L 360.10,361.88 L 360.99,355.13 L 360.70,348.64 L 360.29,344.66 L 360.37,336.13 L 360.89,333.71 L 361.49,329.79 L 363.98,322.77 L 366.21,318.33 L 369.23,313.58 L 374.16,306.29 L 377.47,300.77 L 379.97,294.89 L 382.59,286.03 L 383.42,279.48 L 383.83,272.11 L 383.62,265.36 L 382.78,259.22 L 381.23,251.02 L 380.28,248.16 L 379.41,245.57 L 379.60,243.22 L 380.32,240.84 L 382.24,238.22 L 384.31,236.49 L 389.22,232.77 L 391.64,230.00 L 393.89,226.18 L 397.17,212.14 L 397.21,208.52 L 395.73,204.33 L 392.55,198.78 L 382.07,179.72 L 379.53,173.85 L 377.49,167.04 L 376.73,162.24 L 376.42,157.89 L 377.33,147.95 L 380.07,138.06 L 381.85,132.03 L 383.66,126.23 L 386.00,119.04 L 389.61,111.40 L 394.90,102.36 L 398.64,97.42 L 403.33,91.72 L 409.91,84.68 L 418.42,77.64 L 426.41,72.64 L 443.12,61.78 L 447.73,60.00 L 450.80,60.79 L 453.49,62.38 L 455.20,65.14 L 455.04,68.05 L 450.66,86.21 L 442.27,123.75 L 437.90,138.14 L 433.85,150.02 L 426.58,170.40" 
        fill="none" 
        stroke="#1a3a52" 
        stroke-width="16" 
        stroke-linecap="round" 
        stroke-linejoin="round"/>
  <path d="M 426.58,170.40 L 400.19,242.10 L 398.68,243.32 L 397.38,243.47 L 391.35,241.65 L 389.72,242.02 L 388.27,242.70 L 387.15,244.11 L 386.53,246.09 L 387.59,251.64 L 392.03,264.53 L 392.50,266.41 L 392.59,270.13 L 390.85,280.33 L 384.94,312.52 L 384.43,319.05 L 383.19,321.20 L 377.06,323.45 L 374.17,325.14 L 371.91,326.96 L 368.82,331.52 L 367.18,336.07 L 366.90,341.62 L 367.74,345.92 L 369.04,348.42 L 373.26,354.39 L 374.80,357.65 L 375.51,361.04 L 375.07,366.22 L 372.88,374.97 L 370.22,378.84 L 368.53,380.16 L 364.48,382.78 L 362.44,384.19 L 360.93,385.76 L 359.81,389.74 L 360.14,406.55 L 360.76,410.21 L 364.65,414.87 L 367.74,416.86 L 375.01,419.27 L 377.10,420.32 L 379.62,424.08 L 380.98,431.52 L 382.22,437.44 L 385.03,445.87 L 387.13,451.10 L 388.64,459.79 L 389.14,465.66 L 388.87,472.28 L 387.92,498.35 L 385.79,532.05 L 384.95,534.22 L 382.86,536.96 L 380.18,538.66 L 376.07,540.00 L 371.94,539.40 L 369.21,538.08 L 366.42,536.32 L 364.11,532.26 L 362.97,526.70 L 363.24,521.70 L 364.31,517.66 L 370.49,507.60 L 373.81,502.85 L 376.56,495.93 L 377.63,491.57 L 378.40,485.46 L 378.19,480.73 L 377.57,475.22 L 375.51,469.45 L 373.13,464.54 L 369.87,458.67 L 367.21,453.02 L 366.05,446.84 L 366.13,442.61 L 366.13,439.35 L 364.87,436.89 L 362.97,434.78 L 359.98,433.21 L 353.55,431.44 L 349.01,427.88 L 346.90,424.66 L 346.12,421.92 L 345.07,416.48 L 344.80,410.25 L 344.80,406.03 L 345.23,401.29 L 346.04,396.25 L 348.29,389.95 L 354.11,378.34 L 358.04,369.44 L 360.10,361.88 L 360.99,355.13 L 360.70,348.64 L 360.29,344.66 L 360.37,336.13 L 360.89,333.71 L 361.49,329.79 L 363.98,322.77 L 366.21,318.33 L 369.23,313.58 L 374.16,306.29 L 377.47,300.77 L 379.97,294.89 L 382.59,286.03 L 383.42,279.48 L 383.83,272.11 L 383.62,265.36 L 382.78,259.22 L 381.23,251.02 L 380.28,248.16 L 379.41,245.57 L 379.60,243.22 L 380.32,240.84 L 382.24,238.22 L 384.31,236.49 L 389.22,232.77 L 391.64,230.00 L 393.89,226.18 L 397.17,212.14 L 397.21,208.52 L 395.73,204.33 L 392.55,198.78 L 382.07,179.72 L 379.53,173.85 L 377.49,167.04 L 376.73,162.24 L 376.42,157.89 L 377.33,147.95 L 380.07,138.06 L 381.85,132.03 L 383.66,126.23 L 386.00,119.04 L 389.61,111.40 L 394.90,102.36 L 398.64,97.42 L 403.33,91.72 L 409.91,84.68 L 418.42,77.64 L 426.41,72.64 L 443.12,61.78 L 447.73,60.00 L 450.80,60.79 L 453.49,62.38 L 455.20,65.14 L 455.04,68.05 L 450.66,86.21 L 442.27,123.75 L 437.90,138.14 L 433.85,150.02 L 426.58,170.40" 
        fill="none" 
        stroke="#00bfff" 
        stroke-width="8" 
        stroke-linecap="round" 
        stroke-linejoin="round"
        filter="url(#glow-strong)"
        opacity="0.9"/>
</svg>