<svg xmlns="http://www.w3.org/2000/svg" viewBox="0 0 800 600" style="background: transparent;">
  <defs>
    <filter id="glow">
      <feGaussianBlur stdDeviation="4" result="coloredBlur"/>
      <feMerge>
        <feMergeNode in="coloredBlur"/>
        <feMergeNode in="SourceGraphic"/>
      </feMerge>
    </filter>
    <filter id="glow-strong">
      <feGaussianBlur stdDeviation="8" result="coloredBlur"/>
      <feMerge>
        <feMergeNode in="coloredBlur"/>
        <feMergeNode in="coloredBlur"/>
        <feMergeNode in="SourceGraphic"/>
      </feMerge>
    </filter>
  </defs>
  <path d="M 706.02,349.54 L 718.76,252.26 L 720.00,239.67 L 718.76,233.45 L 715.32,228.02 L 699.55,203.94 L 696.71,200.01 L 693.73,198.57 L 689.95,198.12 L 681.29,198.57 L 641.33,200.76 L 579.73,207.32 L 571.92,209.36 L 566.99,212.35 L 563.11,216.58 L 559.88,225.04 L 559.43,233.40 L 559.68,238.37 L 558.08,240.96 L 549.48,241.56 L 540.57,241.76 L 495.14,244.34 L 367.21,251.16 L 351.73,253.00 L 340.89,255.94 L 329.74,261.46 L 284.36,301.32 L 264.95,317.89 L 261.72,320.48 L 257.09,321.22 L 251.32,320.18 L 246.99,317.29 L 244.15,314.50 L 235.94,289.53 L 231.62,270.82 L 220.77,214.19 L 198.43,100.24 L 197.18,97.85 L 195.54,95.76 L 192.46,93.53 L 188.77,92.68 L 184.25,92.78 L 182.16,93.62 L 176.93,100.24 L 171.71,107.66 L 167.82,116.07 L 163.64,120.20 L 143.94,135.97 L 134.14,145.03 L 128.02,150.95 L 124.24,156.27 L 120.40,169.26 L 120.95,175.33 L 122.05,179.96 L 124.73,185.33 L 123.34,188.71 L 118.36,190.41 L 109.21,193.54 L 101.35,198.57 L 91.69,205.33 L 84.23,211.90 L 81.54,217.42 L 80.30,225.19 L 80.00,232.00 L 87.56,244.89 L 118.07,299.48 L 157.33,369.99 L 164.29,382.72 L 170.81,388.75 L 173.50,390.93 L 182.45,392.73 L 190.37,387.85 L 200.37,380.88 L 241.52,337.74 L 245.20,335.85 L 248.24,336.60 L 251.07,341.97 L 267.29,373.72 L 288.99,410.44 L 292.97,416.36 L 296.80,417.75 L 303.72,414.67 L 307.70,412.33 L 423.14,345.55 L 442.00,338.34 L 455.08,335.90 L 617.89,326.30 L 624.21,327.54 L 632.42,331.37 L 639.19,336.15 L 643.52,344.06 L 644.62,351.58 L 643.37,369.44 L 638.69,393.72 L 624.56,432.93 L 620.73,441.29 L 618.14,448.21 L 616.75,456.67 L 616.75,467.51 L 619.14,491.65 L 623.27,501.15 L 628.94,506.87 L 633.72,507.32 L 638.05,506.18 L 642.82,500.65 L 645.41,497.27 L 647.90,493.84 L 652.38,490.05 L 662.68,484.98 L 671.34,482.59 L 682.18,483.64 L 687.76,481.40 L 690.59,477.42 L 692.23,471.05 L 696.61,417.51 L 706.02,349.54" 
        fill="none" 
        stroke="#1a3a52" 
        stroke-width="16" 
        stroke-linecap="round" 
        stroke-linejoin="round"/>
  <path d="M 706.02,349.54 L 718.76,252.26 L 720.00,239.67 L 718.76,233.45 L 715.32,228.02 L 699.55,203.94 L 696.71,200.01 L 693.73,198.57 L 689.95,198.12 L 681.29,198.57 L 641.33,200.76 L 579.73,207.32 L 571.92,209.36 L 566.99,212.35 L 563.11,216.58 L 559.88,225.04 L 559.43,233.40 L 559.68,238.37 L 558.08,240.96 L 549.48,241.56 L 540.57,241.76 L 495.14,244.34 L 367.21,251.16 L 351.73,253.00 L 340.89,255.94 L 329.74,261.46 L 284.36,301.32 L 264.95,317.89 L 261.72,320.48 L 257.09,321.22 L 251.32,320.18 L 246.99,317.29 L 244.15,314.50 L 235.94,289.53 L 231.62,270.82 L 220.77,214.19 L 198.43,100.24 L 197.18,97.85 L 195.54,95.76 L 192.46,93.53 L 188.77,92.68 L 184.25,92.78 L 182.16,93.62 L 176.93,100.24 L 171.71,107.66 L 167.82,116.07 L 163.64,120.20 L 143.94,135.97 L 134.14,145.03 L 128.02,150.95 L 124.24,156.27 L 120.40,169.26 L 120.95,175.33 L 122.05,179.96 L 124.73,185.33 L 123.34,188.71 L 118.36,190.41 L 109.21,193.54 L 101.35,198.57 L 91.69,205.33 L 84.23,211.90 L 81.54,217.42 L 80.30,225.19 L 80.00,232.00 L 87.56,244.89 L 118.07,299.48 L 157.33,369.99 L 164.29,382.72 L 170.81,388.75 L 173.50,390.93 L 182.45,392.73 L 190.37,387.85 L 200.37,380.88 L 241.52,337.74 L 245.20,335.85 L 248.24,336.60 L 251.07,341.97 L 267.29,373.72 L 288.99,410.44 L 292.97,416.36 L 296.80,417.75 L 303.72,414.67 L 307.70,412.33 L 423.14,345.55 L 442.00,338.34 L 455.08,335.90 L 617.89,326.30 L 624.21,327.54 L 632.42,331.37 L 639.19,336.15 L 643.52,344.06 L 644.62,351.58 L 643.37,369.44 L 638.69,393.72 L 624.56,432.93 L 620.73,441.29 L 618.14,448.21 L 616.75,456.67 L 616.75,467.51 L 619.14,491.65 L 623.27,501.15 L 628.94,506.87 L 633.72,507.32 L 638.05,506.18 L 642.82,500.65 L 645.41,497.27 L 647.90,493.84 L 652.38,490.05 L 662.68,484.98 L 671.34,482.59 L 682.18,483.64 L 687.76,481.40 L 690.59,477.42 L 692.23,471.05 L 696.61,417.51 L 706.02,349.54" 
        fill="none" 
        stroke="#00bfff" 
        stroke-width="8" 
        stroke-linecap="round" 
        stroke-linejoin="round"
        filter="url(#glow-strong)"
        opacity="0.9"/>
</svg>