<svg xmlns="http://www.w3.org/2000/svg" viewBox="0 0 800 600" style="background: transparent;">
  <defs>
    <filter id="glow">
      <feGaussianBlur stdDeviation="4" result="coloredBlur"/>
      <feMerge>
        <feMergeNode in="coloredBlur"/>
        <feMergeNode in="SourceGraphic"/>
      </feMerge>
    </filter>
    <filter id="glow-strong">
      <feGaussianBlur stdDeviation="8" result="coloredBlur"/>
      <feMerge>
        <feMergeNode in="coloredBlur"/>
        <feMergeNode in="coloredBlur"/>
        <feMergeNode in="SourceGraphic"/>
      </feMerge>
    </filter>
  </defs>
  <path d="M 550.81,325.65 L 482.94,245.00 L 445.41,199.80 L 406.38,153.68 L 365.54,104.57 L 351.59,87.99 L 347.14,84.26 L 343.14,81.63 L 339.69,80.44 L 333.51,79.85 L 327.88,80.13 L 323.70,80.94 L 319.65,82.58 L 305.57,89.30 L 301.12,90.80 L 293.12,92.12 L 286.67,92.12 L 277.44,90.62 L 272.22,88.17 L 233.15,66.32 L 227.70,64.27 L 222.06,62.73 L 214.52,60.82 L 207.39,60.00 L 201.16,60.00 L 194.39,60.27 L 186.85,61.00 L 179.54,62.77 L 170.72,66.04 L 166.18,68.54 L 162.00,71.27 L 158.23,73.81 L 148.23,83.63 L 143.33,91.21 L 139.78,99.66 L 138.87,105.61 L 137.96,112.70 L 138.19,120.20 L 139.69,128.15 L 143.92,140.78 L 148.55,150.96 L 153.55,158.95 L 158.91,165.27 L 226.79,246.05 L 230.88,248.91 L 236.55,251.41 L 247.14,253.36 L 253.86,252.77 L 259.32,251.55 L 265.59,248.91 L 272.67,244.64 L 277.22,240.78 L 282.67,232.60 L 284.62,226.42 L 285.17,216.83 L 284.71,211.11 L 282.81,204.66 L 279.13,198.34 L 272.31,188.58 L 223.02,130.92 L 221.65,127.01 L 221.56,123.61 L 222.79,119.52 L 225.06,116.70 L 227.56,114.34 L 231.47,112.29 L 236.33,111.02 L 240.14,110.52 L 246.37,111.43 L 249.23,112.29 L 323.33,137.37 L 333.60,142.14 L 343.82,148.00 L 354.09,155.27 L 361.36,161.86 L 390.85,196.48 L 394.03,201.66 L 395.39,205.25 L 394.16,210.93 L 390.39,216.02 L 384.58,220.06 L 371.13,226.01 L 363.81,230.46 L 359.77,233.87 L 355.77,238.23 L 353.54,241.19 L 335.01,274.26 L 313.97,311.52 L 312.29,317.92 L 312.29,324.47 L 313.15,329.51 L 314.52,334.37 L 318.65,340.00 L 321.83,343.82 L 328.65,349.41 L 335.42,353.36 L 571.21,443.86 L 579.48,447.36 L 583.80,450.81 L 585.89,454.13 L 586.43,458.13 L 584.75,462.58 L 581.98,466.13 L 577.98,469.03 L 572.17,472.35 L 562.76,475.44 L 556.95,476.48 L 548.91,477.30 L 542.00,477.53 L 535.05,477.21 L 527.46,475.76 L 516.92,471.94 L 509.70,468.81 L 499.61,462.17 L 489.62,456.81 L 482.71,454.50 L 472.03,453.90 L 465.67,454.95 L 458.09,457.86 L 452.00,461.67 L 448.23,466.13 L 445.18,471.12 L 444.23,476.62 L 443.96,479.21 L 446.05,486.48 L 449.77,491.66 L 455.59,495.88 L 511.79,530.50 L 517.33,534.00 L 524.33,537.09 L 530.69,538.77 L 539.55,539.82 L 548.27,540.00 L 556.27,538.77 L 562.81,536.68 L 576.08,530.37 L 590.89,523.24 L 603.70,516.60 L 611.97,513.01 L 639.91,499.75 L 646.63,496.20 L 650.90,492.84 L 654.77,488.93 L 657.90,484.44 L 660.49,478.44 L 661.94,472.85 L 662.04,464.81 L 660.49,457.58 L 652.72,446.09 L 550.81,325.65" 
        fill="none" 
        stroke="#1a3a52" 
        stroke-width="16" 
        stroke-linecap="round" 
        stroke-linejoin="round"/>
  <path d="M 550.81,325.65 L 482.94,245.00 L 445.41,199.80 L 406.38,153.68 L 365.54,104.57 L 351.59,87.99 L 347.14,84.26 L 343.14,81.63 L 339.69,80.44 L 333.51,79.85 L 327.88,80.13 L 323.70,80.94 L 319.65,82.58 L 305.57,89.30 L 301.12,90.80 L 293.12,92.12 L 286.67,92.12 L 277.44,90.62 L 272.22,88.17 L 233.15,66.32 L 227.70,64.27 L 222.06,62.73 L 214.52,60.82 L 207.39,60.00 L 201.16,60.00 L 194.39,60.27 L 186.85,61.00 L 179.54,62.77 L 170.72,66.04 L 166.18,68.54 L 162.00,71.27 L 158.23,73.81 L 148.23,83.63 L 143.33,91.21 L 139.78,99.66 L 138.87,105.61 L 137.96,112.70 L 138.19,120.20 L 139.69,128.15 L 143.92,140.78 L 148.55,150.96 L 153.55,158.95 L 158.91,165.27 L 226.79,246.05 L 230.88,248.91 L 236.55,251.41 L 247.14,253.36 L 253.86,252.77 L 259.32,251.55 L 265.59,248.91 L 272.67,244.64 L 277.22,240.78 L 282.67,232.60 L 284.62,226.42 L 285.17,216.83 L 284.71,211.11 L 282.81,204.66 L 279.13,198.34 L 272.31,188.58 L 223.02,130.92 L 221.65,127.01 L 221.56,123.61 L 222.79,119.52 L 225.06,116.70 L 227.56,114.34 L 231.47,112.29 L 236.33,111.02 L 240.14,110.52 L 246.37,111.43 L 249.23,112.29 L 323.33,137.37 L 333.60,142.14 L 343.82,148.00 L 354.09,155.27 L 361.36,161.86 L 390.85,196.48 L 394.03,201.66 L 395.39,205.25 L 394.16,210.93 L 390.39,216.02 L 384.58,220.06 L 371.13,226.01 L 363.81,230.46 L 359.77,233.87 L 355.77,238.23 L 353.54,241.19 L 335.01,274.26 L 313.97,311.52 L 312.29,317.92 L 312.29,324.47 L 313.15,329.51 L 314.52,334.37 L 318.65,340.00 L 321.83,343.82 L 328.65,349.41 L 335.42,353.36 L 571.21,443.86 L 579.48,447.36 L 583.80,450.81 L 585.89,454.13 L 586.43,458.13 L 584.75,462.58 L 581.98,466.13 L 577.98,469.03 L 572.17,472.35 L 562.76,475.44 L 556.95,476.48 L 548.91,477.30 L 542.00,477.53 L 535.05,477.21 L 527.46,475.76 L 516.92,471.94 L 509.70,468.81 L 499.61,462.17 L 489.62,456.81 L 482.71,454.50 L 472.03,453.90 L 465.67,454.95 L 458.09,457.86 L 452.00,461.67 L 448.23,466.13 L 445.18,471.12 L 444.23,476.62 L 443.96,479.21 L 446.05,486.48 L 449.77,491.66 L 455.59,495.88 L 511.79,530.50 L 517.33,534.00 L 524.33,537.09 L 530.69,538.77 L 539.55,539.82 L 548.27,540.00 L 556.27,538.77 L 562.81,536.68 L 576.08,530.37 L 590.89,523.24 L 603.70,516.60 L 611.97,513.01 L 639.91,499.75 L 646.63,496.20 L 650.90,492.84 L 654.77,488.93 L 657.90,484.44 L 660.49,478.44 L 661.94,472.85 L 662.04,464.81 L 660.49,457.58 L 652.72,446.09 L 550.81,325.65" 
        fill="none" 
        stroke="#00bfff" 
        stroke-width="8" 
        stroke-linecap="round" 
        stroke-linejoin="round"
        filter="url(#glow-strong)"
        opacity="0.9"/>
</svg>