<svg xmlns="http://www.w3.org/2000/svg" viewBox="0 0 800 600" style="background: transparent;">
  <defs>
    <filter id="glow">
      <feGaussianBlur stdDeviation="4" result="coloredBlur"/>
      <feMerge>
        <feMergeNode in="coloredBlur"/>
        <feMergeNode in="SourceGraphic"/>
      </feMerge>
    </filter>
    <filter id="glow-strong">
      <feGaussianBlur stdDeviation="8" result="coloredBlur"/>
      <feMerge>
        <feMergeNode in="coloredBlur"/>
        <feMergeNode in="coloredBlur"/>
        <feMergeNode in="SourceGraphic"/>
      </feMerge>
    </filter>
  </defs>
  <path d="M 208.37,199.58 L 266.16,159.74 L 282.12,150.08 L 294.48,143.71 L 299.06,141.83 L 300.84,141.36 L 302.83,141.66 L 304.61,142.60 L 305.83,144.18 L 306.43,145.63 L 306.23,147.38 L 293.67,178.63 L 288.08,193.08 L 287.10,197.53 L 286.90,201.33 L 287.10,205.78 L 288.08,209.92 L 289.86,215.14 L 292.66,219.58 L 295.66,223.56 L 299.83,227.70 L 304.41,230.56 L 310.61,233.90 L 344.28,251.98 L 358.06,259.45 L 361.02,261.98 L 363.61,265.01 L 365.80,267.54 L 367.62,271.04 L 369.00,274.04 L 372.61,282.76 L 375.00,285.62 L 377.99,288.95 L 381.97,291.18 L 385.17,292.63 L 393.11,295.32 L 399.31,298.01 L 402.88,300.40 L 405.10,302.76 L 407.09,305.96 L 407.86,309.77 L 409.08,316.27 L 409.68,320.41 L 410.86,324.99 L 412.48,328.32 L 414.46,331.52 L 417.06,334.69 L 419.85,337.55 L 424.03,340.71 L 428.81,343.74 L 434.00,346.27 L 439.55,348.32 L 444.37,349.30 L 448.34,349.44 L 451.54,349.30 L 456.73,348.02 L 489.80,334.85 L 492.99,333.74 L 496.36,333.74 L 498.96,334.69 L 505.56,338.19 L 513.30,343.58 L 518.89,348.49 L 524.48,354.99 L 528.66,359.27 L 532.46,361.83 L 536.64,363.41 L 539.84,364.05 L 544.42,364.05 L 549.60,362.77 L 553.58,360.89 L 556.78,358.16 L 558.56,356.27 L 560.35,353.88 L 561.96,351.19 L 564.35,348.96 L 567.15,348.02 L 569.91,348.02 L 629.51,359.44 L 633.32,360.55 L 635.71,361.66 L 637.50,363.11 L 672.38,399.75 L 703.06,431.84 L 714.81,444.84 L 719.63,452.45 L 720.00,454.37 L 719.43,456.12 L 718.01,457.06 L 716.23,458.17 L 714.24,458.64 L 712.05,458.51 L 709.06,457.87 L 645.27,440.22 L 600.82,429.45 L 551.79,419.14 L 493.20,408.97 L 456.52,403.72 L 422.61,399.44 L 322.77,389.91 L 311.62,388.16 L 310.20,387.39 L 309.60,385.80 L 309.80,384.53 L 311.21,382.77 L 317.78,376.44 L 340.51,349.44 L 350.48,335.46 L 351.09,333.41 L 350.48,330.41 L 349.07,328.32 L 346.47,326.74 L 344.28,326.27 L 340.11,325.80 L 321.59,327.07 L 319.77,327.85 L 318.19,329.13 L 316.60,330.71 L 315.19,332.93 L 311.42,341.82 L 309.80,345.33 L 307.21,348.49 L 295.05,359.27 L 293.27,360.55 L 291.08,361.36 L 288.89,361.66 L 276.93,362.60 L 274.54,362.47 L 273.13,361.66 L 271.75,360.25 L 271.14,358.33 L 271.95,356.10 L 295.05,321.65 L 304.41,306.43 L 305.22,302.29 L 305.02,298.18 L 304.24,294.85 L 303.23,291.51 L 300.64,285.32 L 297.04,278.48 L 294.65,275.79 L 290.67,273.26 L 286.09,271.34 L 267.17,263.90 L 263.36,263.09 L 259.59,262.92 L 252.62,263.39 L 246.02,264.20 L 239.65,265.95 L 232.68,268.35 L 226.49,271.51 L 222.31,274.20 L 219.52,278.31 L 197.80,304.68 L 180.86,323.10 L 178.67,324.99 L 176.08,325.96 L 172.67,326.57 L 169.68,326.44 L 165.50,325.46 L 160.52,324.04 L 156.34,322.63 L 86.36,296.09 L 82.39,293.74 L 80.81,291.51 L 80.00,289.12 L 80.81,287.37 L 82.39,285.79 L 84.38,284.21 L 121.05,258.65 L 208.37,199.58" 
        fill="none" 
        stroke="#1a3a52" 
        stroke-width="16" 
        stroke-linecap="round" 
        stroke-linejoin="round"/>
  <path d="M 208.37,199.58 L 266.16,159.74 L 282.12,150.08 L 294.48,143.71 L 299.06,141.83 L 300.84,141.36 L 302.83,141.66 L 304.61,142.60 L 305.83,144.18 L 306.43,145.63 L 306.23,147.38 L 293.67,178.63 L 288.08,193.08 L 287.10,197.53 L 286.90,201.33 L 287.10,205.78 L 288.08,209.92 L 289.86,215.14 L 292.66,219.58 L 295.66,223.56 L 299.83,227.70 L 304.41,230.56 L 310.61,233.90 L 344.28,251.98 L 358.06,259.45 L 361.02,261.98 L 363.61,265.01 L 365.80,267.54 L 367.62,271.04 L 369.00,274.04 L 372.61,282.76 L 375.00,285.62 L 377.99,288.95 L 381.97,291.18 L 385.17,292.63 L 393.11,295.32 L 399.31,298.01 L 402.88,300.40 L 405.10,302.76 L 407.09,305.96 L 407.86,309.77 L 409.08,316.27 L 409.68,320.41 L 410.86,324.99 L 412.48,328.32 L 414.46,331.52 L 417.06,334.69 L 419.85,337.55 L 424.03,340.71 L 428.81,343.74 L 434.00,346.27 L 439.55,348.32 L 444.37,349.30 L 448.34,349.44 L 451.54,349.30 L 456.73,348.02 L 489.80,334.85 L 492.99,333.74 L 496.36,333.74 L 498.96,334.69 L 505.56,338.19 L 513.30,343.58 L 518.89,348.49 L 524.48,354.99 L 528.66,359.27 L 532.46,361.83 L 536.64,363.41 L 539.84,364.05 L 544.42,364.05 L 549.60,362.77 L 553.58,360.89 L 556.78,358.16 L 558.56,356.27 L 560.35,353.88 L 561.96,351.19 L 564.35,348.96 L 567.15,348.02 L 569.91,348.02 L 629.51,359.44 L 633.32,360.55 L 635.71,361.66 L 637.50,363.11 L 672.38,399.75 L 703.06,431.84 L 714.81,444.84 L 719.63,452.45 L 720.00,454.37 L 719.43,456.12 L 718.01,457.06 L 716.23,458.17 L 714.24,458.64 L 712.05,458.51 L 709.06,457.87 L 645.27,440.22 L 600.82,429.45 L 551.79,419.14 L 493.20,408.97 L 456.52,403.72 L 422.61,399.44 L 322.77,389.91 L 311.62,388.16 L 310.20,387.39 L 309.60,385.80 L 309.80,384.53 L 311.21,382.77 L 317.78,376.44 L 340.51,349.44 L 350.48,335.46 L 351.09,333.41 L 350.48,330.41 L 349.07,328.32 L 346.47,326.74 L 344.28,326.27 L 340.11,325.80 L 321.59,327.07 L 319.77,327.85 L 318.19,329.13 L 316.60,330.71 L 315.19,332.93 L 311.42,341.82 L 309.80,345.33 L 307.21,348.49 L 295.05,359.27 L 293.27,360.55 L 291.08,361.36 L 288.89,361.66 L 276.93,362.60 L 274.54,362.47 L 273.13,361.66 L 271.75,360.25 L 271.14,358.33 L 271.95,356.10 L 295.05,321.65 L 304.41,306.43 L 305.22,302.29 L 305.02,298.18 L 304.24,294.85 L 303.23,291.51 L 300.64,285.32 L 297.04,278.48 L 294.65,275.79 L 290.67,273.26 L 286.09,271.34 L 267.17,263.90 L 263.36,263.09 L 259.59,262.92 L 252.62,263.39 L 246.02,264.20 L 239.65,265.95 L 232.68,268.35 L 226.49,271.51 L 222.31,274.20 L 219.52,278.31 L 197.80,304.68 L 180.86,323.10 L 178.67,324.99 L 176.08,325.96 L 172.67,326.57 L 169.68,326.44 L 165.50,325.46 L 160.52,324.04 L 156.34,322.63 L 86.36,296.09 L 82.39,293.74 L 80.81,291.51 L 80.00,289.12 L 80.81,287.37 L 82.39,285.79 L 84.38,284.21 L 121.05,258.65 L 208.37,199.58" 
        fill="none" 
        stroke="#00bfff" 
        stroke-width="8" 
        stroke-linecap="round" 
        stroke-linejoin="round"
        filter="url(#glow-strong)"
        opacity="0.9"/>
</svg>